<svg width="1222" height="773" viewBox="0 0 1222 773" fill="none" xmlns="http://www.w3.org/2000/svg">
    <path d="M133.5 135.5C38 216.5 -27.933 96.8729 14.9999 42C99.4997 -66 241.211 67.4999 208 188.5C143.5 423.5 240.45 660.212 490.5 709.5C594.5 730 707.694 676.836 850 517C988 362 1220 427.238 1220 618.5C1220 734.5 1073.5 837.5 939 718.5" stroke="#CFD8DC" stroke-width="3" stroke-dasharray="10 10"/>
    <path d="M949.556 709.97L934.338 710.392L930.888 707.079C930.344 706.556 929.68 706.152 928.94 705.902L928.435 705.759C927.785 705.539 927.087 705.714 926.613 706.217C926.138 706.72 926 707.432 926.24 708.048L926.426 708.605C926.701 709.312 927.133 709.96 927.678 710.484L931.128 713.797L931.466 729.153C931.483 729.935 931.801 730.662 932.361 731.2L933.345 732.144C933.498 732.292 933.719 732.342 933.921 732.276C934.123 732.211 934.275 732.039 934.315 731.827L936.811 718.94C938.155 720.08 939.316 720.99 940.729 722.098L942.178 723.231L941.309 728.075C941.275 728.271 941.339 728.468 941.479 728.603L942.319 729.409C942.445 729.531 942.621 729.588 942.796 729.564C942.972 729.54 943.126 729.437 943.217 729.286L945.922 724.76L950.266 721.809C950.302 721.785 950.334 721.757 950.363 721.726C950.454 721.63 950.51 721.506 950.522 721.371C950.536 721.194 950.47 721.019 950.344 720.897L949.505 720.091C949.364 719.956 949.165 719.901 948.974 719.947L944.226 721.066L943.028 719.657C941.864 718.289 940.906 717.165 939.711 715.867L952.34 712.71C952.548 712.658 952.709 712.496 952.763 712.291C952.82 712.084 952.759 711.863 952.605 711.716L951.622 710.771C951.061 710.233 950.327 709.948 949.556 709.97Z" fill="#CFD8DC"/>
</svg>
