<svg width="1366" height="252" viewBox="0 0 1366 252" fill="none" xmlns="http://www.w3.org/2000/svg">
    <path d="M0 107L17.4544 122.708C34.9089 138.527 69.8178 169.943 104.727 167.966C139.636 165.989 174.544 130.398 209.757 124.576C244.818 118.754 280.334 142.481 315.394 153.466C350.607 164.451 385.516 162.693 420.424 166.648C455.333 170.712 490.242 180.598 525.151 181.477C560.06 182.466 594.969 174.337 630.181 165.549C665.242 156.761 700.758 147.314 735.819 136.879C771.031 126.443 805.94 115.019 840.849 119.413C875.758 123.807 910.667 144.019 945.576 159.178C980.484 174.337 1015.39 184.663 1050.61 179.5C1085.67 174.337 1121.18 153.905 1156.24 137.977C1191.46 122.049 1226.36 110.625 1261.27 112.822C1296.18 115.019 1331.09 130.837 1348.55 138.636L1366 146.545V252H1348.55C1331.09 252 1296.18 252 1261.27 252C1226.36 252 1191.46 252 1156.24 252C1121.18 252 1085.67 252 1050.61 252C1015.39 252 980.484 252 945.576 252C910.667 252 875.758 252 840.849 252C805.94 252 771.031 252 735.819 252C700.758 252 665.242 252 630.181 252C594.969 252 560.06 252 525.151 252C490.242 252 455.333 252 420.424 252C385.516 252 350.607 252 315.394 252C280.334 252 244.818 252 209.757 252C174.544 252 139.636 252 104.727 252C69.8178 252 34.9089 252 17.4544 252H0V107Z" fill="#455A64"/>
    <path fill-rule="evenodd" clip-rule="evenodd" d="M1131.83 131.534V176.572L1134.36 180H1107.03L1109.11 176.572H1109.17V149.33L1107.81 145.581H1112.68H1109.24C1108.79 140.082 1104.11 135.684 1098.53 135.684C1092.95 135.684 1088.21 140.082 1087.75 145.581H1084.25H1089.18L1087.82 149.33V176.572H1087.88L1090.35 180H1063.09L1065.1 176.572V126.487L1059.2 121.892H1059V121.44H1065.1V114H1131.83V121.44H1138V121.892H1137.68L1131.84 126.487V131.534H1131.83Z" fill="#455A64"/>
    <path fill-rule="evenodd" clip-rule="evenodd" d="M655.733 130.369V136.484H656.07V159H714.039V136.484H714.663V129.652H713.843V78.6023H715V77.1691H712.686V75.0193H711.866V74.3513H711.627L710.709 72.7241L709.748 71L708.83 72.7241L707.912 74.3513H707.673V75.0193H693.986V77.1691H691.624V78.6023H692.927V101.883H687.24L686.323 95.046L686.132 93.2303V83.4783H687.675V82.2822H686.132V80.9891H684.829V82.2822H683.286V83.4783H684.829V92.9933L684.541 95.046L683.623 101.883H677.214V78.6023H678.371V77.1691H676.057V75.0193H662.664V74.3513H662.425L661.507 72.7241L660.589 71L659.627 72.7241L658.758 74.3513H658.471V75.0193H657.363V77.1691H655V78.6023H656.298V129.652H655.722V130.369H655.733ZM677.225 104.028H683.683V108.042L683.297 108.661L681.081 112.104H677.225V104.022V104.028ZM687.246 104.028H692.932V112.109H689.847L687.68 108.667L687.246 108.047V104.033V104.028ZM678.235 121.619C678.425 118.176 681.125 115.455 684.546 115.213C681.125 115.45 678.425 118.225 678.235 121.619ZM685.606 115.213C687.05 115.31 688.354 115.881 689.413 116.743C688.354 115.886 687.05 115.31 685.606 115.213ZM710.372 112.584H696.398V102.066H710.372V112.584ZM705.359 103.742C705.843 103.742 706.277 104.028 706.277 104.362V111.484H704.447V104.362C704.447 104.028 704.833 103.742 705.365 103.742H705.359ZM701.748 103.742C702.231 103.742 702.665 104.028 702.665 104.362V111.484H700.835V104.362C700.835 104.028 701.221 103.742 701.753 103.742H701.748ZM707.434 116.075H709.313V114.211H707.434V116.075ZM697.555 116.075H699.483V114.211H697.555V116.075ZM668.736 103.742C669.219 103.742 669.654 104.028 669.654 104.362V111.484H667.823V104.362C667.823 104.028 668.209 103.742 668.741 103.742H668.736ZM665.119 103.742C665.602 103.742 665.988 104.028 665.988 104.362V111.484H664.206V104.362C664.206 104.028 664.592 103.742 665.124 103.742H665.119ZM670.805 116.075H672.684V114.211H670.805V116.075ZM660.926 116.075H662.805V114.211H660.926V116.075ZM710.514 157.615H709.21V144.997C709.21 141.123 703.475 137.971 703.475 137.971C703.475 137.971 697.739 141.128 697.739 144.997V157.615H695.86V136.484H710.508V157.615H710.514ZM692.346 157.615H690.852V144.997C690.852 141.123 685.117 137.971 685.117 137.971C685.117 137.971 679.381 141.128 679.381 144.997V157.615H677.741V136.484H692.34V157.615H692.346ZM674.178 157.615H672.538V144.997C672.538 141.123 666.802 137.971 666.802 137.971C666.802 137.971 661.067 141.128 661.067 144.997V157.615H659.622V136.484H674.173V157.615H674.178Z" fill="#455A64"/>
    <path fill-rule="evenodd" clip-rule="evenodd" d="M566.112 179.453H567.103L559.599 164.891C555.673 161.102 550.309 158.809 544.446 158.809C539.081 158.809 534.209 160.754 530.435 163.946L522.438 179.453H523.877V182.994H505V179.453H507.486L523.037 149.288V144.752H526.369L531.885 128.891V128.542H531.986L533.526 124.051H532.932V119.864H534.674V119.066H532.087V114.525H536.012C538.941 91.4857 540.335 51.8944 540.783 39.2256H540.682V38.2308H540.834L540.884 35.7858H540.19V31.6997H541.982V26.6636H544.065V19.5311H544.759V13H545.554V19.5311H546.299V26.6636H548.338V31.6997H550.174V35.7858H549.43L549.53 38.2308H549.631V39.2256H549.581C549.827 46.3581 550.325 62.1126 551.322 78.6708L551.373 78.8226L551.322 78.8732C551.916 88.8947 552.661 99.1185 553.557 107.898C553.803 110.292 554.1 112.434 554.301 114.53H558.277V119.072H555.696V119.87H557.387V124.057H556.989L558.529 128.548L564.14 144.758H565.876V148.995L566.224 148.844L582.021 179.459H585V183H566.123V179.459L566.112 179.453ZM527.758 143.701L532.775 140.761L529.841 137.917L527.752 143.701H527.758ZM530.591 135.574L535.06 132.634L532.529 130.088L530.591 135.574ZM533.223 128.093L536.505 125.996L534.517 124.304L533.223 128.093ZM555.881 124.051H555.729L553.842 125.844L557.174 127.789L555.881 124.051ZM558.014 130.138L555.679 132.533L559.705 135.073L558.014 130.138ZM560.646 137.721L557.465 140.761L562.78 143.853L560.64 137.721H560.646ZM544.597 35.7914L543.404 36.7863L542.211 35.7914H544.597ZM543.057 37.1404L541.662 38.2364L541.763 35.9938L543.057 37.1404ZM542.312 38.2364L543.303 37.3877L544.199 38.2364H542.312ZM543.701 37.0898L544.692 36.2917V37.9891L543.701 37.0898ZM544.692 39.3324L543.202 40.8781L541.662 39.2312H544.692V39.3324ZM542.805 41.2771L541.562 42.6261L541.612 39.9338L542.805 41.2771ZM541.562 43.2724L543.152 41.6256L544.591 43.2724H541.562ZM543.499 41.2265L544.692 39.9788V42.5193L543.499 41.2209V41.2265ZM544.692 44.2673L543.102 45.8635L541.662 44.2167H544.692V44.2673ZM542.654 46.212L541.36 47.6059L541.455 44.7619L542.648 46.2064L542.654 46.212ZM541.315 48.3085L543.057 46.611L544.496 48.3591H541.315V48.3085ZM543.398 46.212L544.692 44.9136V47.7071L543.398 46.212ZM544.692 49.4045L543.051 51.0007L541.511 49.3033H544.692V49.4045ZM542.603 51.3998L541.164 52.7937V52.4958L541.265 49.9047L542.609 51.3998H542.603ZM541.259 53.3445L542.95 51.7483L544.39 53.3445H541.259ZM543.298 51.3998L544.686 50.1014V52.8949L543.298 51.3998ZM544.686 54.6429L543.046 56.0874L541.254 54.2944H544.58L544.681 54.345V54.6429H544.686ZM542.598 56.4358L540.957 57.8297L541.108 54.8902L542.598 56.4358ZM541.007 58.4311L542.945 56.7843L544.535 58.4311H541.007ZM543.292 56.4358L544.681 55.2892V57.7848L543.292 56.4358ZM545.627 54.4911L545.773 54.2944H549.099L547.414 56.0874L545.627 54.5417V54.4911ZM544.681 59.4316L542.794 61.0278L541.153 59.381H544.681V59.4316ZM542.396 61.3763L540.755 62.7702L540.856 59.8307L542.396 61.3763ZM540.654 63.4222L542.743 61.7248L544.434 63.5178H540.654V63.4166V63.4222ZM543.141 61.3763L544.58 60.078V62.922L543.141 61.3763ZM544.535 64.5182L542.648 66.165L540.957 64.4227H544.535V64.5238V64.5182ZM542.25 66.5135L540.509 68.0592L540.61 64.8667L542.25 66.5135ZM540.66 68.5088L542.598 66.862L544.238 68.5088H540.66ZM543.046 66.5135L544.535 65.1702V66.7664L544.485 67.5646V68.0648L543.046 66.5191V66.5135ZM540.761 64.4171L540.61 64.8667L540.66 64.4171H540.761ZM544.339 69.4531L542.553 71.0493L540.962 69.4531H544.339ZM542.105 71.4484L540.218 73.1458L540.369 69.7566L542.105 71.454V71.4484ZM540.565 73.5954L542.502 71.8025L544.339 73.5954H540.565ZM542.95 71.4034L544.49 70.0545L544.44 70.9032V72.2015L544.39 72.8029L542.95 71.4091V71.4034ZM544.042 74.5453L542.306 75.9898L540.867 74.5453H544.048H544.042ZM541.808 76.49L539.921 78.0357L540.173 74.7421L541.814 76.49H541.808ZM540.218 78.6315L542.256 76.8835L543.897 78.6315H540.218ZM542.799 76.49L544.339 75.0905V75.7425L544.238 77.9851L542.799 76.49ZM544.188 79.5814L542.301 81.1776L540.811 79.5814H544.188ZM541.802 81.5711L539.613 83.4652L539.865 79.5758L541.802 81.5654V81.5711ZM540.363 83.6675L542.25 82.0713L543.841 83.6675H540.363ZM542.799 81.5711L544.188 80.4244V80.6268L544.138 80.8741V82.1725L544.087 82.9706L542.794 81.5767L542.799 81.5711ZM543.746 84.6118L541.959 86.0563L540.57 84.6118H543.751H543.746ZM541.461 86.5565L539.277 88.4L539.574 84.6118L541.461 86.5565ZM539.921 88.6979L541.909 87.0005L543.6 88.6979H539.921ZM542.458 86.5565L544.048 85.1626L543.998 85.7134V86.1125L543.897 88.0066L542.458 86.5621V86.5565ZM543.398 89.6478L541.511 91.1935L540.022 89.6478H543.398ZM540.962 91.5925L538.924 93.2394L539.221 89.6984L540.962 91.5925ZM539.322 93.734L541.455 92.0872L542.945 93.734H539.316H539.322ZM541.909 91.6375L543.796 90.193C543.746 91.2384 543.695 92.385 543.594 93.4361L541.903 91.6431L541.909 91.6375ZM543.247 94.7288L541.36 96.1733L539.921 94.7288H543.253H543.247ZM540.862 96.623L538.527 98.4665C538.627 97.2693 538.723 95.971 538.823 94.7288H539.019L540.856 96.623H540.862ZM539.221 98.7644L541.259 97.067L542.85 98.7644H539.221ZM541.802 96.6735L543.488 95.3246C543.438 96.3251 543.387 97.3199 543.292 98.2698L541.802 96.6735ZM542.446 99.7143L540.806 101.063L539.563 99.7143H542.446ZM540.262 101.507L538.079 103.205C538.23 102.109 538.325 100.911 538.375 99.7143H538.622L540.262 101.507ZM538.375 103.851L540.66 101.957L542.502 103.851H538.375ZM541.209 101.558L543.197 99.9672C543.096 101.063 543.051 102.26 542.9 103.306L541.209 101.558ZM542.553 104.801L540.369 106.498L538.829 104.801H542.553ZM539.87 106.892L537.731 108.685H537.58C537.681 107.437 537.782 106.144 537.927 104.846L539.865 106.892H539.87ZM538.728 108.685L540.318 107.392L541.511 108.685H538.728ZM540.867 106.987L542.754 105.492C542.603 106.543 542.508 107.639 542.407 108.584L540.867 106.987ZM542.161 109.635L539.725 111.63L537.888 109.635H542.161ZM539.227 112.029L536.992 113.828C537.093 112.63 537.289 111.383 537.39 110.135L539.227 112.029ZM537.093 114.525L539.624 112.529L541.315 114.322V114.373L541.265 114.519H537.093V114.525ZM540.173 112.08L542.11 110.534C541.914 111.63 541.763 112.681 541.562 113.575L540.173 112.08ZM545.84 35.7858L547.078 36.7807L548.22 35.7858H545.834H545.84ZM547.43 37.1348L548.623 38.0846L548.573 36.0893L547.43 37.1348ZM548.074 38.2308L547.128 37.3821L546.187 38.2308H548.074ZM546.73 37.0842L545.638 36.1343V38.079L546.73 37.0842ZM545.638 39.2256L547.274 40.8724L548.668 39.2762V39.2256H545.638ZM547.626 41.2715L548.718 42.4687L548.668 40.1249L547.626 41.2715ZM548.769 43.1656L547.33 41.62L545.79 43.2668H548.769V43.1656ZM546.932 41.2209L545.644 39.872V42.6654L546.932 41.2209ZM545.739 44.2111L547.38 45.8579L548.718 44.2111H545.739ZM547.727 46.2064L548.92 47.4036L548.87 44.908L547.727 46.2064ZM548.97 48.1005L547.43 46.6054L545.991 48.3534H548.97V48.1005ZM547.033 46.2064L545.644 44.8125V47.9544L547.033 46.2064ZM545.644 49.2977L547.43 50.9951L548.97 49.2977H545.644ZM547.828 51.3942L549.116 52.5914L549.015 50.0452L547.822 51.3942H547.828ZM549.116 53.3389L547.481 51.7426L546.086 53.3389H549.116ZM547.078 51.3942L545.638 50.0003V53.041L547.078 51.3942ZM547.822 56.4302L549.312 57.7285L549.211 54.9857L547.822 56.4302ZM549.362 58.3749L547.475 56.7787L545.834 58.4255H549.362V58.3749ZM547.078 56.4302L545.638 55.1824V57.8747L547.078 56.4302ZM545.739 59.3754L547.677 61.0222L549.318 59.3754H545.739ZM548.074 61.3707L549.564 62.669L549.413 60.0274L548.069 61.3763L548.074 61.3707ZM549.564 63.3154L547.727 61.7192L546.036 63.5121H549.614L549.564 63.3154ZM547.33 61.3707L545.689 59.9712V63.0119L547.33 61.3651V61.3707ZM545.739 64.4114L547.778 66.1538L549.514 64.4114H545.739ZM548.226 66.5079L549.816 67.9074L549.665 65.0128L548.226 66.5079ZM549.816 68.5032L547.828 66.8564L546.187 68.5032H549.816ZM547.43 66.5079L545.739 65.0128V66.7552L545.79 67.5533V68.1547L547.43 66.5079ZM546.137 69.4475L547.828 71.0437L549.418 69.4475H546.137ZM548.321 71.4428L550.062 72.9884L549.911 69.8971L548.321 71.4428ZM549.911 73.5898L547.974 71.7969L546.137 73.5898H549.911ZM547.481 71.3978L545.79 69.9027L545.84 70.8976V72.1959L545.89 72.9435L547.481 71.3978ZM546.389 74.5397L548.13 75.9842L549.569 74.5397H546.389ZM548.623 76.4844L550.314 77.8783L550.163 74.8882L548.623 76.4844ZM550.214 78.6259L548.226 76.8779L546.484 78.6259H550.208H550.214ZM547.682 76.4844L545.896 74.9894L545.997 75.7369L546.047 78.1313L547.688 76.4844H547.682ZM546.288 79.5758L548.074 81.172L549.665 79.5758H546.288ZM548.623 81.5654L550.661 83.364L550.415 79.7725L548.629 81.5654H548.623ZM550.062 83.6619L548.226 82.0657L546.635 83.6619H550.062ZM547.677 81.5654L546.086 80.2671V80.6155L546.137 80.8629V82.1612L546.187 83.1055L547.677 81.5598V81.5654ZM546.73 84.6062L548.422 86.0507L549.911 84.6062H546.73ZM548.965 86.5509L551.003 88.2483L550.801 84.7073L548.965 86.5509ZM550.555 88.6923L548.567 86.9949L546.826 88.6923H550.555ZM548.024 86.5509L546.282 85.0558L546.333 85.7022V86.1012L546.383 88.1977L548.024 86.5509ZM547.027 89.6422L548.965 91.1879L550.359 89.6422H547.027ZM549.514 91.5869L551.305 93.1326L551.053 89.8895L549.514 91.5869ZM551.053 93.7284L549.015 92.0815L547.425 93.7284H551.048H551.053ZM548.472 91.6319L546.484 89.9851C546.534 91.2328 546.635 92.43 546.686 93.5766L548.472 91.6319ZM547.178 94.7232L549.065 96.1677L550.505 94.7232H547.173H547.178ZM549.614 96.6173L551.798 98.3653C551.647 97.1176 551.552 95.971 551.501 94.7232H551.451L549.614 96.6173ZM551.255 98.7588L549.116 97.0614L547.576 98.7588H551.249H551.255ZM548.623 96.6679L546.786 95.1729C546.837 96.2689 546.938 97.3649 546.988 98.4159L548.629 96.6679H548.623ZM548.03 99.7086L549.67 101.058L550.913 99.7086H548.035H548.03ZM550.214 101.502L552.201 103.098C552.101 101.951 551.955 100.855 551.905 99.7086H551.854L550.214 101.502ZM552.101 103.845L549.715 101.951L547.974 103.845H552.095H552.101ZM549.217 101.552L547.083 99.7592C547.134 101.058 547.279 102.305 547.386 103.497L549.222 101.552H549.217ZM547.929 104.795L550.017 106.493L551.658 104.795H547.934H547.929ZM550.561 106.886L552.745 108.679C552.593 107.482 552.498 106.234 552.347 105.037L550.561 106.881V106.886ZM551.653 108.679L550.163 107.386L548.92 108.679H551.653ZM549.614 106.982L547.576 105.335C547.677 106.481 547.772 107.628 547.974 108.673L549.614 106.976V106.982ZM548.27 109.629L550.706 111.624L552.543 109.629H548.27ZM551.249 112.023L553.288 113.67C553.187 112.574 552.991 111.428 552.89 110.281L551.249 112.029V112.023ZM553.288 114.519L550.801 112.524L548.965 114.468L549.015 114.519H553.288ZM550.258 112.074L548.22 110.377C548.371 111.624 548.567 112.72 548.763 113.67L550.253 112.074H550.258ZM533.862 128.531H539.428L537.093 126.536L533.862 128.531ZM539.523 124.04L537.093 125.586L535.351 124.04H539.523ZM537.687 126.137L540.918 124.04H541.366L540.772 128.531H540.576L537.692 126.137H537.687ZM553.237 126.333L550.902 128.525H557.017L553.243 126.333H553.237ZM550.701 124.04L553.187 125.485L554.727 124.04H550.701ZM552.588 125.985L549.11 124.04L549.855 128.531L552.588 125.985ZM531.174 136.405H538.874L535.794 133.365L531.174 136.405ZM539.82 129.475L535.794 132.117L533.162 129.475H539.82ZM536.595 132.864L540.47 130.375L539.574 135.911L536.595 132.87V132.864ZM554.878 133.264L551.748 136.405H559.991L554.878 133.264ZM550.801 129.475L554.878 132.021L557.409 129.475H550.801ZM554.128 132.763L550.057 130.223L550.902 135.557L550.953 135.956L554.133 132.763H554.128ZM556.665 141.492L553.383 144.735H561.979L556.665 141.492ZM551.893 137.355L556.614 140.199L559.543 137.355H551.893ZM555.769 141.048L551.35 138.356L552.291 144.392L555.769 141.054V141.048ZM528.245 144.741H536.942L533.565 141.498L528.251 144.741H528.245ZM538.331 137.361L533.66 140.205L530.681 137.361H538.331ZM534.455 141.054L539.227 138.21L538.235 144.645L534.461 141.054H534.455ZM554.128 154.268V155.813C554.475 155.965 554.828 156.111 555.125 156.212L554.128 154.268ZM553.73 155.661V153.469L553.086 152.222V155.414L553.73 155.661ZM552.638 155.313V151.424L552.241 150.625H551.994V155.06L552.638 155.307V155.313ZM551.546 154.914V150.625H550.947V154.762L551.546 154.908V154.914ZM550.505 154.717V150.631H549.861V154.521L550.505 154.717ZM549.413 154.47V150.631H548.763V154.374L549.413 154.476V154.47ZM548.371 154.273V150.631H547.727V154.172L548.371 154.273ZM547.33 154.121V150.631H546.68V154.071L547.33 154.121ZM546.282 154.071V150.631H545.638V154.02L546.282 154.071ZM545.19 154.02V150.631H544.546V154.02H545.19ZM544.098 154.02V150.631H543.499V154.02H544.098ZM543.057 154.02V150.631H542.413V154.071L543.057 154.02ZM541.965 154.121V150.631H541.315V154.172L541.965 154.121ZM540.923 154.223V150.631H540.279V154.273L540.923 154.223ZM539.882 154.419V150.631H539.232V154.521L539.882 154.419ZM538.84 154.571V150.631H538.196V154.768L538.84 154.571ZM537.748 154.869V150.631H537.3L537.104 150.98V155.066L537.748 154.869ZM536.656 155.167V151.823L536.057 153.07V155.364L536.656 155.167ZM568.8 178.307L571.381 175.019L565.815 172.523L568.794 178.307H568.8ZM572.327 173.917L574.859 170.775H565.372L572.327 173.917ZM575.805 171.725L573.621 174.519L578.342 176.564L575.811 171.725H575.805ZM572.675 175.615L569.645 179.453H579.781L579.333 178.554L572.675 175.615ZM564.129 169.28L567.008 167.24L562.242 165.542L564.129 169.28ZM568.156 166.487L570.838 164.643H563.188L568.156 166.487ZM572.277 164.84L569.343 166.886L574.215 168.634L572.277 164.846V164.84ZM568.156 167.684L565.126 169.825H574.019L568.156 167.684ZM562.242 163.693H570.636L565.12 161.698L562.242 163.693ZM561.049 163.294L563.928 161.299L559.112 159.557L561.049 163.294ZM565.126 160.45L567.96 158.506H559.711L565.126 160.45ZM569.147 158.905L566.319 160.9L571.084 162.648L569.147 158.905ZM558.115 157.606H568.497L567.551 155.763H557.169L558.109 157.606H558.115ZM520.657 178.402L518.025 175.013L523.737 172.518L520.657 178.402ZM517.079 173.912L514.598 170.77H524.09L517.085 173.912H517.079ZM513.702 171.77L515.791 174.513L511.266 176.508L513.702 171.77ZM516.732 175.609L519.812 179.448H509.777L510.225 178.504L516.732 175.609ZM525.372 169.331L522.438 167.24L527.31 165.492L525.372 169.331ZM521.251 166.487L518.619 164.643H526.268L521.251 166.487ZM517.275 164.891L520.109 166.886L515.337 168.634L517.275 164.891ZM521.251 167.684L524.331 169.825H515.388L521.251 167.684ZM527.215 163.693H518.815L524.331 161.698L527.215 163.693ZM567.058 154.818H556.676L554.537 150.631H564.919L567.052 154.818H567.058ZM528.402 163.345L525.473 161.299L530.44 159.557L528.402 163.345ZM524.331 160.45L521.503 158.506H529.701L524.336 160.45H524.331ZM520.31 158.955L523.144 160.9L518.423 162.597L520.31 158.955ZM531.437 157.606H521.004L521.951 155.763H532.383L531.443 157.606H531.437ZM532.831 154.813H522.449L524.633 150.625H535.015L532.831 154.813ZM542.071 126.789H548.578L551.311 144.741H539.238L540.632 135.562L542.071 126.789ZM548.382 125.839H542.172L542.469 124.046H548.086L548.382 125.839ZM535.615 155.51V153.863L534.523 155.959C534.87 155.757 535.217 155.662 535.615 155.51ZM557.325 160.4L556.782 159.354C553.153 157.207 548.982 156.016 544.462 156.016C540.335 156.016 536.415 157.061 533.033 158.905L532.535 159.905C536.063 157.91 540.134 156.713 544.457 156.713C549.222 156.713 553.551 158.061 557.325 160.405V160.4Z" fill="#455A64"/>
    <path fill-rule="evenodd" clip-rule="evenodd" d="M102.235 106.412V112.039H102.96V113.075H102.715C123.192 125.839 111.713 129.796 114.121 132.333C110.183 132.252 106.255 132.252 102.235 132.333H90.1866C91.7165 129.555 79.8306 125.91 101.031 113.075H100.787V112.039H101.511V106.734H101.031C100.144 106.734 99.3476 106.18 99.0217 105.304C99.4201 105.706 99.9089 105.858 100.47 105.858C101.674 105.858 102.715 104.911 102.715 103.715C102.715 103.473 102.634 103.161 102.552 103C103.032 103.393 103.276 103.947 103.276 104.51C103.276 105.304 102.878 106.01 102.235 106.412ZM62.2418 137.236C62.4862 136.763 60.558 136.2 64.0885 134.065C67.465 136.2 65.6183 136.843 66.0166 137.236H62.2418ZM62.0788 140.88H65.9352V138.817H62.0788V140.88ZM62.803 140.407H63.5272V139.219H62.803V140.407ZM64.5682 140.407H65.211V139.219H64.5682V140.407ZM63.6811 140.407H64.3238V139.219H63.6811V140.407ZM61.59 138.585H66.4874V138.192H61.59V138.585ZM61.59 137.87H66.4874V137.468H61.59V137.87ZM61.59 141.515H66.4874V141.202H61.59V141.515ZM61.59 141.988H66.4874V141.675H61.59V141.988ZM61.9974 142.068H66.0166V151.893H61.9974V142.068ZM66.0166 152.528V161.004H61.9974V152.528H66.0166ZM66.0166 161.638V166.872H70.7511V142.622L78.6991 141.032V166.872H79.0159V136.763H80.0569V136.441H89.3719V133.663H114.429V135.959V136.432H124.07V136.754H124.875V166.863H125.355V140.63L133.068 142.774V166.863H138.291V161.629H142.229V166.863H149.38V158.387H155.808V166.863H164V168.998H40V166.863H48.4369V158.387H54.9455V166.863H62.0155V161.629H66.0347L66.0166 161.638ZM54.6106 118.684C54.2123 117.97 57.3444 117.104 51.6414 113.692C46.1013 117.014 49.152 118.05 48.5093 118.684H54.6106ZM54.7736 124.633H48.5907V121.302H54.7736V124.633ZM53.651 123.919H52.61V122.016H53.651V123.919ZM50.7633 123.919H49.7223V122.016H50.7633V123.919ZM52.2117 123.919H51.1707V122.016H52.2117V123.919ZM55.7421 121.141H47.7127V120.274H55.7421V121.141ZM55.7421 119.872H47.7127V119.077H55.7421V119.872ZM55.7421 125.66H47.7127V124.865H55.7421V125.66ZM55.7421 126.455H47.7127V125.902H55.7421V126.455ZM164 174H40V169.722H164V174ZM54.9365 126.616H48.4278V142.542H54.9365V126.616ZM149.625 118.684C150.105 117.97 146.891 117.104 152.675 113.692C158.216 117.014 155.165 118.05 155.808 118.684H149.625ZM155.726 124.633V121.302H156.613V120.274H148.584V121.302H149.471V124.633H148.584V126.616H149.389V142.542H155.817V126.616H156.622V124.633H155.735H155.726ZM150.666 123.919H151.707V122.016H150.666V123.919ZM153.481 123.919H154.604V122.016H153.481V123.919ZM152.114 123.919H153.164V122.016H152.114V123.919ZM148.584 120.114H156.613V119.086H148.584V120.114ZM155.817 143.569V157.279H149.389V143.569H155.817ZM90.9198 166.872H113.008V138.103H90.9198V166.872ZM142.084 137.236C141.84 136.763 143.768 136.2 140.237 134.065C136.779 136.2 138.708 136.843 138.309 137.236H142.084ZM142.247 140.88H138.391V138.817H142.247V140.88ZM141.441 140.407H140.799V139.219H141.441V140.407ZM139.758 140.407H139.115V139.219H139.758V140.407ZM140.563 140.407H139.921V139.219H140.563V140.407ZM142.727 138.665H137.829V138.192H142.727V138.665ZM142.727 137.87H137.829V137.468H142.727V137.87ZM142.727 141.515H137.829V141.122H142.727V141.515ZM142.727 142.068H142.247V151.893H138.309V142.068H137.829V141.675H142.727V142.068ZM138.309 152.528V161.004H142.247V152.528H138.309ZM48.4369 143.569V157.279H54.9455V143.569H48.4369ZM76.5446 158.628V164.496L72.4529 164.577V159.11C72.4529 158.083 74.3811 156.413 74.4626 156.413C74.544 156.413 76.5537 157.601 76.5537 158.628H76.5446ZM76.5446 148.803V154.591L72.4529 155.064V149.276C72.4529 148.169 74.3811 146.499 74.4626 146.499C74.544 146.418 76.5537 147.606 76.5537 148.794L76.5446 148.803ZM127.709 158.628V164.496L131.81 164.577V159.11C131.81 158.083 129.8 156.413 129.718 156.413C129.637 156.413 127.709 157.601 127.709 158.628ZM127.709 148.803V154.591L131.81 155.064V149.276C131.81 148.169 129.8 146.499 129.718 146.499C129.637 146.418 127.709 147.606 127.709 148.794V148.803ZM115.66 135.968C116.149 135.092 112.284 134.065 119.354 129.867H119.037V129.555H119.281V128.126H119.037C118.792 128.126 118.475 127.884 118.394 127.652C118.475 127.733 118.711 127.813 118.874 127.813C119.272 127.813 119.598 127.5 119.598 127.179C119.598 127.098 119.598 127.027 119.516 126.947C119.679 127.027 119.752 127.179 119.752 127.42C119.752 127.661 119.67 127.813 119.516 127.974V129.555H119.679V129.867H119.363C126.107 133.913 122.576 135.182 123.219 135.968H115.669H115.66ZM104.019 150.071V154.591H108.681V149.911C108.681 147.213 102.335 143.569 102.009 143.569C101.683 143.569 95.3465 147.213 95.3465 149.911V154.591H99.927V150.071C99.927 149.276 101.855 148.169 102.018 148.169C102.1 148.169 104.028 149.276 104.028 150.071H104.019ZM104.019 160.138V164.577H99.927V160.138C99.927 159.262 101.855 158.164 102.018 158.164C102.1 158.164 104.028 159.271 104.028 160.138H104.019ZM108.681 156.181H95.3465V164.577H93.4183V140.487H110.527V164.577H108.681V156.181ZM82.8179 151.107H84.4202V154.118H82.8179V151.107ZM82.8179 161.567H84.4202V164.577H82.8179V161.567ZM119.679 161.567H121.282V164.577H119.679V161.567ZM119.679 151.107H121.282V154.118H119.679V151.107ZM81.3695 138.353H82.8179V140.496H81.3695V138.353ZM121.526 138.353H123.056V140.496H121.526V138.353ZM119.118 138.353H120.567V140.496H119.118V138.353ZM116.629 138.353H118.077V140.496H116.629V138.353ZM86.3484 138.353H87.7968V140.496H86.3484V138.353ZM83.8589 138.353H85.3073V140.496H83.8589V138.353ZM117.516 155.949H119.761C119.281 156.19 118.801 156.583 118.557 156.744C118.077 157.137 117.434 157.86 117.434 158.566V164.907H123.617V158.566C123.617 157.851 122.893 157.137 122.413 156.744C122.25 156.583 121.689 156.19 121.209 155.949H123.617V155.314H117.516V155.949ZM80.5729 145.168H83.3068C82.827 145.409 81.9399 146.123 81.7045 146.275C81.2247 146.668 80.5005 147.383 80.5005 148.097V154.439H86.6833V148.097C86.6833 147.383 85.9591 146.668 85.4793 146.275C85.2349 146.034 84.4383 145.4 83.8771 145.168H86.6924V144.534H80.591V145.168H80.5729ZM80.5729 155.949H82.8994C82.4196 156.19 81.8584 156.583 81.6954 156.744C81.2157 157.137 80.4914 157.86 80.4914 158.566V164.907H86.6743V158.566C86.6743 157.851 86.0315 157.137 85.4703 156.744C85.3073 156.583 84.8276 156.19 84.3478 155.949H86.6743V155.314H80.5729V155.949ZM117.353 145.168H120.241C119.679 145.409 118.792 146.043 118.629 146.275C118.068 146.668 117.425 147.383 117.425 148.097V154.439H123.608V148.097C123.608 147.383 122.884 146.668 122.404 146.275C122.16 146.114 121.282 145.4 120.802 145.168H123.373V144.534H117.353V145.168ZM84.909 126.947C85.072 127.027 85.1535 127.179 85.1535 127.42C85.1535 127.661 85.072 127.813 84.909 127.974V129.555H85.1535V129.867H84.4293V129.555H84.6737V128.126H84.4293C84.1848 128.126 83.9495 127.884 83.7865 127.652C83.9495 127.733 84.1124 127.813 84.2663 127.813C84.6646 127.813 84.9905 127.5 84.9905 127.179C84.9905 127.098 84.9905 127.027 84.909 126.947ZM84.7461 129.876C91.4901 133.922 88.0412 135.191 88.6024 135.977H81.0527C81.614 135.101 77.6762 134.074 84.7461 129.876Z" fill="#455A64"/>
    <path fill-rule="evenodd" clip-rule="evenodd" d="M1022.18 84.008H1021.03V75.74L1020.9 75.871L1020.7 75.74V78.3893L1020.45 78.069L1020.19 78.5203L1019.93 78.9715L1019.61 78.5203L1019.35 78.069L1019.04 78.5203L1018.78 78.9715L1018.46 78.5203L1018.2 78.069L1017.88 78.5203L1017.62 78.9715L1017.37 78.5203L1017.05 78.069L1016.79 78.5203L1016.47 78.9715L1016.22 78.5203L1015.9 78.069L1015.64 78.5203L1015.38 78.9715L1015.06 78.5203L1014.8 78.069L1014.48 78.5203L1014.22 78.9715L1013.9 78.5203L1013.65 78.069L1013.33 78.5203L1013.08 78.9715L1012.82 78.5203L1012.5 78.069L1012.24 78.5203L1011.92 78.9715L1011.67 78.5203L1011.35 78.069L1011.1 78.5203L1010.84 78.9715L1010.52 78.5203L1010.26 78.069L1009.94 78.5203L1009.68 78.9715L1009.37 78.5203L1009.11 78.069L1008.79 78.5203L1008.53 78.9715L1008.28 78.5203L1007.95 78.069L1007.7 78.5203L1007.38 78.9715L1007.13 78.5203L1006.81 78.069L1006.55 78.5203L1006.29 78.9715L1005.97 78.5203L1005.72 78.069L1005.39 78.5203L1005.14 78.9715L1004.82 78.5203L1004.56 78.069L1004.24 78.5203L1003.99 78.9715L1003.73 78.5203L1003.41 78.069L1003.15 78.5203L1002.83 78.9715L1002.58 78.5203L1002.26 78.069L1002 78.5203L1001.75 78.9715L1001.43 78.5203L1001.17 78.069L1000.91 78.4548V75.7473L1000.73 75.8783L1000.53 75.7473V84.0153H999.435V80.7838L999.305 80.973L999.109 80.7838V107.582H1022.58V80.7838L1022.38 80.973L1022.25 80.7838V84.0153L1022.18 84.008ZM1022.89 185H998V170.087H1022.89V185ZM1020.45 168.923V154.978H1019.42V168.923H1018.64V154.978H1017.55V168.923H1016.78V154.978H1015.75V168.923H1014.92V154.978H1013.89V168.923H1013.06V154.978H1012.03V168.923H1011.19V154.978H1010.16V168.923H1009.33V154.978H1008.3V168.923H1007.52V154.978H1006.43V168.923H1005.66V154.978H1004.63V168.923H1003.8V154.978H1002.77V168.923H1001.94V154.978H1000.91V168.923H1000.07V140.057H1021.3V168.923H1020.46H1020.45ZM1019.42 154.199H1020.45V140.705H1019.42V154.199ZM1000.9 154.199H1001.93V140.705H1000.9V154.199ZM1002.76 154.199H1003.79V140.705H1002.76V154.199ZM1004.63 154.199H1005.65V140.705H1004.63V154.199ZM1006.42 154.199H1007.52V140.705H1006.42V154.199ZM1008.29 154.199H1009.31V140.705H1008.29V154.199ZM1010.15 154.199H1011.18V140.705H1010.15V154.199ZM1012.01 154.199H1013.04V140.705H1012.01V154.199ZM1013.87 154.199H1014.9V140.705H1013.87V154.199ZM1015.74 154.199H1016.77V140.705H1015.74V154.199ZM1017.53 154.199H1018.63V140.705H1017.53V154.199ZM1001.39 75.0341L1000.62 74.3863L999.914 75.0341L1000.62 75.8055L1001.39 75.0341ZM1021.59 75.0341L1020.88 74.3863L1020.17 75.0341L1020.88 75.8055L1021.59 75.0341ZM1023 80.0705L1022.29 79.4228L1021.64 80.0705L1022.29 80.842L1023 80.0705ZM999.848 80.0705L999.21 79.4228L998.5 80.0705L999.21 80.842L999.848 80.0705ZM1000.43 74.4518V74.0005H1000.81V74.4518L1000.62 74.2553L1000.43 74.4518ZM1020.69 74.4518V74.0005H1021.01V74.4518L1020.88 74.2553L1020.69 74.4518ZM999.015 79.4883V78.9715H999.334V79.4228L999.203 79.2918L999.008 79.4883H999.015ZM1022.17 79.4228V78.9715H1022.49V79.4883L1022.29 79.2918L1022.16 79.4228H1022.17ZM1005.71 70.7035L1002.62 78.3893L1002.68 78.4548L1002.75 78.5858L1003.33 77.7488L1003.78 78.4621L1003.91 78.5931L1004.04 78.4621L1004.49 77.7488L1005.07 78.6513L1005.2 78.4548L1005.65 77.6833L1006.03 78.4548L1006.23 78.6513L1006.74 77.7488L1007.26 78.4621L1007.32 78.5931L1007.45 78.4621L1007.9 77.7488L1008.35 78.4621L1008.48 78.5931L1008.61 78.4621L1009.06 77.7488L1009.51 78.4621L1009.64 78.6586L1009.77 78.4621L1010.22 77.6906L1010.61 78.4621L1010.81 78.6586L1010.87 78.4621L1011.32 77.7488L1011.84 78.4621L1011.9 78.5931L1012.48 77.7561L1012.93 78.4693L1013.06 78.6004L1013.19 78.4693L1013.64 77.7561L1014.22 78.6586L1014.35 78.4621L1014.8 77.6906L1015.25 78.4621L1015.38 78.6586L1015.9 77.7561L1016.41 78.4693L1016.48 78.6004L1017.06 77.7634L1017.51 78.4766L1017.64 78.6076L1017.77 78.4766L1018.22 77.7634L1018.8 78.6004L1018.86 78.4693L1018.93 78.4038L1015.84 70.7181H1005.74L1005.71 70.7035ZM1006.73 75.9293L1006.1 74.8302L1005.9 74.5755L1005.06 75.9293L1005.31 76.0603L1005.89 75.0923L1006.41 76.0603L1006.73 75.9293H1006.73ZM1011.56 73.3455L1010.92 72.181L1010.79 71.9263L1009.95 73.3455L1010.2 73.4765L1010.78 72.5085L1011.29 73.4765L1011.55 73.3455H1011.56ZM1014.77 73.3455L1014.07 72.181L1013.94 71.9263L1013.11 73.3455L1013.37 73.4765L1013.95 72.5085L1014.46 73.4765L1014.78 73.3455H1014.77ZM1016.38 75.9293L1015.67 74.8302L1015.54 74.5755L1014.77 75.9293L1014.96 76.0603L1015.54 75.0923L1016.12 76.0603L1016.38 75.9293ZM1013.11 75.9293L1012.53 74.8302L1012.33 74.5755L1011.5 75.9293L1011.75 76.0603L1012.33 75.0923L1012.91 76.0603L1013.11 75.9293ZM1009.89 75.9293L1009.31 74.8302L1009.11 74.5755L1008.28 75.9293L1008.53 76.0603L1009.11 75.0923L1009.63 76.0603L1009.88 75.9293H1009.89ZM1008.67 73.3455L1008.09 72.181L1007.89 71.9263L1007.06 73.3455L1007.31 73.4765L1007.89 72.5085L1008.41 73.4765L1008.67 73.3455ZM1003.72 80.1288H1001.41V83.2948H1003.72V80.1288ZM1019.8 80.1288H1017.54V83.2948H1019.8V80.1288ZM1016.64 80.1288H1014.27V83.2948H1016.64V80.1288ZM1013.43 80.1288H1011.05V83.2948H1013.43V80.1288ZM1010.21 80.1288H1007.84V83.2948H1010.21V80.1288ZM1006.94 80.1288H1004.63V83.2948H1006.94V80.1288ZM1011.69 51.1325H1009.83V49.7788H1011.69V51.1325ZM1005.65 61.533L1004.94 60.8198L1004.23 61.533L1004.94 62.239L1005.65 61.533ZM1017.29 61.533L1016.59 60.8198L1015.87 61.533L1016.59 62.239L1017.29 61.533ZM1016.19 64.306L1015.94 64.8227L1015.68 65.3395H1015.61L1015.42 64.8227L1015.1 64.306L1014.78 64.8227L1014.58 65.3395L1014.33 64.8227L1014.01 64.306L1013.76 64.8227L1013.5 65.3395L1013.24 64.8227L1012.99 64.306L1012.66 64.8227L1012.41 65.3395L1012.16 64.8227L1011.9 64.306L1011.58 64.8227L1011.39 65.3395H1011.32L1011.07 64.8227L1010.82 64.306L1010.49 64.8227L1010.29 65.3395H1010.23L1009.97 64.8227L1009.72 64.306L1009.4 64.8227L1009.21 65.3395H1009.14L1008.88 64.8227L1008.63 64.306L1008.31 64.8227L1008.11 65.3395H1008.05L1007.79 64.8227L1007.47 64.306L1007.22 64.8227L1006.97 65.3395L1006.77 64.8227L1006.45 64.306L1006.13 64.8227L1005.94 65.3395H1005.87L1005.68 64.8227L1005.35 64.306L1005.15 64.6262V62.3627L1004.96 62.4937L1004.76 62.3627V65.3322V70.3032H1016.79V65.3322V62.3627L1016.6 62.4937L1016.4 62.3627V64.6262L1016.21 64.306H1016.19ZM1010.79 49C1010.79 49.1965 1010.73 49.3858 1010.73 49.5823H1010.79V49ZM1010.54 51.329C1009.83 55.7833 1007.77 59.7208 1006.36 63.9203V63.8548L1006.87 64.7572L1006.94 64.8883L1007.45 63.8548L1007.97 64.7572L1008.03 64.8883L1008.09 64.7572L1008.6 63.8548L1009.12 64.8883L1009.18 64.7572L1009.7 63.8548L1010.21 64.8883L1010.28 64.7572L1010.79 63.8548L1011.24 64.7572L1011.31 64.8883L1011.37 64.7572L1011.89 63.8548L1012.4 64.8883L1012.47 64.7572L1012.98 63.8548L1013.5 64.8883L1013.56 64.7572L1014.08 63.8548L1014.46 64.7572L1014.59 64.8883L1014.66 64.7572L1015.11 63.8548C1015.24 63.6582 1011.18 53.134 1010.92 51.329H1010.54ZM1011.57 57.399L1010.92 56.3655L1010.79 56.0453L1009.95 57.399L1010.21 57.5883L1010.79 56.6203L1011.3 57.5883L1011.56 57.399H1011.57ZM1009.13 62.9523L1008.55 61.7878L1008.36 61.533L1007.52 62.9523L1007.77 63.0833L1008.35 62.0498L1008.87 63.0833L1009.13 62.9523ZM1011.57 62.9523L1010.92 61.7878L1010.79 61.533L1009.95 62.9523L1010.21 63.0833L1010.79 62.0498L1011.3 63.0833L1011.56 62.9523H1011.57ZM1014.01 62.9523L1013.37 61.7878L1013.17 61.533L1012.33 62.9523L1012.65 63.0833L1013.16 62.0498L1013.74 63.0833L1014 62.9523H1014.01ZM1010.16 60.303L1009.51 59.1385L1009.31 58.8838L1008.55 60.303L1008.8 60.434L1009.31 59.4005L1009.89 60.434L1010.16 60.303ZM1012.99 60.303L1012.34 59.1385L1012.21 58.8838L1011.38 60.303L1011.58 60.434L1012.21 59.4005L1012.73 60.434L1012.99 60.303ZM1004.76 60.7543V60.303H1005.14V60.7543L1004.94 60.565L1004.75 60.7543H1004.76ZM1016.4 60.7543V60.303H1016.78V60.7543L1016.59 60.565L1016.4 60.7543ZM1007.2 66.3075H1005.39V69.539H1007.2V66.3075ZM1016.14 66.3075H1014.34V69.539H1016.14V66.3075ZM1013.88 66.3075H1012.08V69.539H1013.88V66.3075ZM1011.69 66.3075H1009.89V69.539H1011.69V66.3075ZM1009.45 66.3075H1007.65V69.539H1009.45V66.3075ZM1019.54 138.434H1020.57V123.71H1019.54V138.434ZM1000.96 138.434H1001.99V123.71H1000.96V138.434ZM1002.82 138.434H1003.85V123.71H1002.82V138.434ZM1004.68 138.434H1005.71V123.71H1004.68V138.434ZM1006.55 138.434H1007.58V123.71H1006.55V138.434ZM1008.41 138.434H1009.44V123.71H1008.41V138.434ZM1010.21 138.434H1011.3V123.71H1010.21V138.434ZM1012.07 138.434H1013.1V123.71H1012.07V138.434ZM1013.93 138.434H1014.96V123.71H1013.93V138.434ZM1015.8 138.434H1016.82V123.71H1015.8V138.434ZM1017.66 138.434H1018.69V123.71H1017.66V138.434ZM1019.52 122.932H1020.55V109.372H1019.52V122.932ZM1000.94 122.932H1001.96V109.372H1000.94V122.932ZM1002.8 122.932H1003.83V109.372H1002.8V122.932ZM1004.66 122.932H1005.69V109.372H1004.66V122.932ZM1006.52 122.932H1007.55V109.372H1006.52V122.932ZM1008.39 122.932H1009.42V109.372H1008.39V122.932ZM1010.18 122.932H1011.28V109.372H1010.18V122.932ZM1012.05 122.932H1013.08V109.372H1012.05V122.932ZM1013.91 122.932H1014.94V109.372H1013.91V122.932ZM1015.77 122.932H1016.8V109.372H1015.77V122.932ZM1017.64 122.932H1018.67V109.372H1017.64V122.932ZM1021.3 108.79H1000.15V139.009H1021.3V108.79ZM1002.85 105.559H1001.63V106.789H1002.85V105.559ZM1019.76 105.559H1018.54V106.789H1019.76V105.559ZM1018.22 105.559H1016.99V106.789H1018.22V105.559ZM1016.67 105.559H1015.45V106.789H1016.67V105.559ZM1015.13 105.559H1013.91V106.789H1015.13V105.559ZM1013.58 105.559H1012.36V106.789H1013.58V105.559ZM1012.04 105.559H1010.82V106.789H1012.04V105.559ZM1010.5 105.559H1009.27V106.789H1010.5V105.559ZM1008.95 105.559H1007.73V106.789H1008.95V105.559ZM1007.41 105.559H1006.25V106.789H1007.41V105.559ZM1005.93 105.559H1004.7V106.789H1005.93V105.559ZM1004.39 105.559H1003.16V106.789H1004.39V105.559ZM1010.75 96.5192C1010.62 96.5192 1010.5 96.4537 1010.37 96.4537L1009.92 96.905C1009.85 97.1597 1009.85 97.3562 1009.72 97.4872C1009.66 97.5527 1009.53 97.5527 1009.4 97.4872C1009.31 97.3611 1009.21 97.2325 1009.08 97.1015C1008.95 97.036 1008.95 96.9122 1009.08 96.7812C1009.21 96.6502 1009.4 96.5847 1009.6 96.5847L1010.11 96.1335C1009.98 96.068 1009.98 95.8715 1009.98 95.7477V95.5512L1005.35 90.5802V90.4492H1005.48C1005.48 90.3837 1005.55 90.3837 1005.55 90.4492L1010.43 95.0345C1010.5 94.969 1010.63 94.969 1010.76 94.969C1010.89 94.969 1011.08 95.0345 1011.21 95.1L1011.98 94.394C1011.91 94.394 1011.84 94.3285 1011.84 94.263C1011.71 94.1975 1011.71 94.001 1011.84 93.9427C1011.98 93.8117 1012.29 93.7462 1012.61 93.7462L1012.74 93.6152V93.2877H1013.19V93.6735H1012.94L1012.74 93.87C1012.74 94.1902 1012.74 94.5177 1012.61 94.6487C1012.48 94.7142 1012.29 94.7142 1012.23 94.6487L1012.16 94.5832L1011.4 95.3547C1011.46 95.4857 1011.53 95.6094 1011.53 95.7405C1011.53 95.8715 1011.46 95.937 1011.46 95.9952C1011.65 96.3154 1012.04 96.5775 1012.42 96.7085C1012.42 96.7085 1012.49 96.7085 1012.49 96.774C1012.49 96.8395 1012.49 96.905 1012.42 96.905C1012.29 96.905 1012.29 96.9705 1012.29 97.036C1012.23 97.036 1012.23 97.1015 1012.23 97.167C1012.23 97.2325 1012.16 97.298 1012.16 97.298C1012.03 97.298 1011.97 97.298 1011.97 97.3635C1011.9 97.3635 1011.84 97.429 1011.84 97.4945H1011.77C1011.71 97.56 1011.71 97.4945 1011.64 97.4945C1011.52 97.0432 1011.26 96.7885 1010.87 96.5265H1010.74L1010.75 96.5192ZM1010.55 89.03H1010.1L1010.04 88.193H1009.97H1010.55V89.03ZM1009.71 89.0955C1009.53 89.161 1009.33 89.161 1009.13 89.2265L1008.95 88.3895C1009.13 88.324 1009.39 88.2585 1009.65 88.2585L1009.71 89.0955ZM1008.81 89.2847C1008.68 89.3502 1008.56 89.4157 1008.37 89.4157L1008.04 88.6442C1008.23 88.5787 1008.42 88.5132 1008.62 88.455L1008.81 89.292L1008.81 89.2847ZM1008.11 89.5467C1007.92 89.6777 1007.72 89.7432 1007.53 89.8015L1007.08 89.0882C1007.28 88.9572 1007.53 88.8335 1007.79 88.768L1008.11 89.5467ZM1007.21 89.998C1007.08 90.1217 1006.95 90.1872 1006.82 90.2527L1006.31 89.5395C1006.5 89.4739 1006.63 89.3429 1006.82 89.2119L1007.21 89.9907V89.998ZM1006.57 90.4492C1006.44 90.5802 1006.37 90.6457 1006.24 90.7112L1006.37 90.8422C1006.44 90.7767 1006.57 90.653 1006.63 90.5875H1006.69L1006.76 90.522C1006.94 90.3983 1007.08 90.2673 1007.27 90.1363H1007.34L1008.68 92.5235C1008.55 92.589 1008.43 92.6545 1008.37 92.72L1008.5 92.851C1009.08 92.3343 1009.84 92.0795 1010.75 92.0795C1011.66 92.0795 1012.55 92.4653 1013.19 93.0475H1013.45C1013.26 92.8583 1013.07 92.6618 1012.81 92.5308L1014.1 90.1435H1014.16C1014.43 90.34 1014.61 90.4638 1014.87 90.6603L1014.94 90.7258C1015.07 90.8568 1015.19 90.9805 1015.39 91.1115C1015.52 91.3081 1015.71 91.4973 1015.9 91.6938V91.7593L1015.97 91.8248C1016.1 92.0213 1016.22 92.1523 1016.29 92.3416L1013.98 93.6953C1013.85 93.5061 1013.66 93.244 1013.53 93.0475V93.3678C1014.04 93.95 1014.43 94.8525 1014.43 95.755C1014.43 96.7885 1013.98 97.691 1013.33 98.4043C1012.62 99.052 1011.72 99.5033 1010.76 99.5033C1009.73 99.5033 1008.83 99.052 1008.12 98.4043C1007.41 97.691 1007.02 96.7958 1007.02 95.755C1007.02 94.918 1007.28 94.1393 1007.79 93.557L1007.66 93.426C1007.6 93.4915 1007.53 93.6225 1007.47 93.6807L1005.15 92.327C1005.28 92.0722 1005.47 91.8102 1005.67 91.6137V91.5482C1005.73 91.5482 1005.73 91.4827 1005.8 91.4245L1005.67 91.2935C1005.6 91.359 1005.6 91.4245 1005.54 91.49L1004.83 90.9078C1004.96 90.8423 1005.02 90.7767 1005.09 90.653V90.3328L1005.28 90.2673C1005.35 90.1363 1005.48 90.1363 1005.61 90.1363C1005.74 90.0125 1005.86 89.947 1006.06 89.816L1006.57 90.4638L1006.57 90.4492ZM1005.47 91.6137H1005.41L1004.83 91.097L1005.47 91.5482V91.6137ZM1005.34 91.7447C1005.21 91.8757 1005.09 92.0723 1005.02 92.2615L1004.64 92.0067L1004.26 91.8102C1004.39 91.621 1004.51 91.359 1004.64 91.228H1004.7L1005.35 91.7447H1005.34ZM1004.83 92.5235C1004.76 92.6545 1004.7 92.7782 1004.64 92.9748L1003.81 92.589C1003.87 92.458 1004 92.2688 1004.06 92.1378L1004.83 92.5235ZM1004.44 93.295C1004.38 93.4915 1004.31 93.6807 1004.26 93.8772L1003.49 93.6225H1003.42C1003.49 93.3605 1003.62 93.1712 1003.68 92.9165L1004.44 93.3023V93.295ZM1004.19 94.1975C1004.12 94.3285 1004.12 94.4595 1004.06 94.6487L1003.23 94.5177C1003.29 94.3285 1003.29 94.132 1003.36 93.9355V94.001L1004.19 94.1975ZM1004.06 94.7797L1003.29 94.7142V94.6487L1004.06 94.7797ZM1004.06 94.9762C1003.99 95.1655 1003.99 95.362 1003.99 95.5585H1003.16C1003.16 95.3038 1003.16 95.1073 1003.23 94.8525L1004.06 94.9835V94.9762ZM1003.99 95.9442C1003.99 96.0752 1003.99 96.2645 1004.06 96.3955L1003.16 96.461V95.9442H1003.99ZM1004.06 96.7157C1004.12 96.9122 1004.12 97.167 1004.19 97.3635L1003.36 97.56C1003.29 97.3053 1003.23 97.1087 1003.23 96.854L1004.06 96.723V96.7157ZM1004.26 97.6837C1004.32 97.8147 1004.39 97.9457 1004.44 98.0695L1003.61 98.3897V98.4552C1003.55 98.2587 1003.48 98.0695 1003.41 97.873H1003.48L1004.25 97.6764L1004.26 97.6837ZM1004.51 98.266L1003.8 98.5862V98.5207L1004.51 98.266ZM1004.57 98.397C1004.64 98.5935 1004.7 98.7827 1004.83 98.9792L1004.06 99.4305C1003.93 99.234 1003.86 98.9792 1003.74 98.7827L1003.81 98.7172L1004.57 98.397ZM1005.02 99.3068C1005.09 99.4378 1005.15 99.5615 1005.28 99.627L1004.51 100.144C1004.44 100.013 1004.31 99.8817 1004.26 99.6925L1005.02 99.3068ZM1005.47 99.889C1005.6 100.086 1005.73 100.217 1005.86 100.406L1005.28 101.054H1005.22C1005.09 100.864 1004.9 100.668 1004.77 100.471L1005.48 99.889H1005.47ZM1006.12 100.661C1006.24 100.726 1006.31 100.857 1006.44 100.915L1005.92 101.628H1005.86C1005.73 101.497 1005.6 101.366 1005.47 101.243L1006.11 100.661H1006.12ZM1006.7 101.177C1006.89 101.308 1007.02 101.374 1007.21 101.497L1006.83 102.276H1006.76C1006.57 102.145 1006.38 102.022 1006.18 101.825L1006.7 101.177ZM1007.53 101.694C1007.66 101.759 1007.79 101.825 1007.92 101.891L1007.6 102.662C1007.4 102.597 1007.21 102.531 1007.08 102.407L1007.53 101.694ZM1008.24 102.014C1008.44 102.08 1008.63 102.145 1008.82 102.211L1008.63 103.048C1008.37 102.982 1008.12 102.917 1007.92 102.851L1008.25 102.014H1008.24ZM1008.95 102.269L1008.82 102.975H1008.76L1008.95 102.269ZM1009.14 102.334C1009.27 102.334 1009.46 102.4 1009.59 102.4L1009.46 103.237C1009.26 103.237 1009.08 103.171 1008.95 103.171L1009.13 102.334H1009.14ZM1009.72 102.465H1009.79L1009.66 103.171L1009.72 102.465ZM1009.92 102.465C1010.11 102.465 1010.37 102.531 1010.56 102.531V103.368C1010.3 103.368 1010.05 103.368 1009.79 103.302L1009.92 102.465ZM1010.88 102.531C1011.01 102.531 1011.2 102.531 1011.33 102.465L1011.46 103.302V103.368H1010.88V102.531ZM1011.71 102.465C1011.91 102.4 1012.1 102.4 1012.29 102.334L1012.49 103.171C1012.29 103.237 1012.04 103.237 1011.78 103.302L1011.71 102.465ZM1012.49 102.269L1012.68 102.975H1012.61L1012.48 102.269H1012.49ZM1012.62 102.203C1012.75 102.203 1012.88 102.138 1013.07 102.072L1013.39 102.851V102.917C1013.19 102.982 1013.07 103.048 1012.87 103.048L1012.61 102.211L1012.62 102.203ZM1013.2 102.007H1013.27L1013.52 102.72L1013.2 102.007ZM1013.4 101.941C1013.59 101.876 1013.78 101.745 1013.91 101.687L1014.36 102.4V102.465C1014.16 102.531 1013.91 102.662 1013.71 102.786V102.72L1013.4 101.949V101.941ZM1014.23 101.49C1014.36 101.425 1014.49 101.359 1014.61 101.235L1015.13 101.949C1015 102.072 1014.81 102.138 1014.68 102.269L1014.23 101.49ZM1014.87 101.039C1015.07 100.908 1015.19 100.784 1015.32 100.653L1015.97 101.235C1015.77 101.425 1015.58 101.621 1015.39 101.752L1014.87 101.039ZM1015.58 100.391C1015.71 100.26 1015.77 100.136 1015.84 100.071L1016.55 100.588C1016.48 100.719 1016.35 100.85 1016.23 100.973L1015.59 100.391H1015.58ZM1016.1 99.7434C1016.23 99.6124 1016.36 99.4232 1016.42 99.2267L1017.19 99.6779C1017.06 99.9327 1016.93 100.129 1016.8 100.326H1016.74L1016.09 99.7434H1016.1ZM1016.61 98.9647C1016.68 98.8337 1016.74 98.7027 1016.8 98.5789L1017.64 98.8992C1017.51 99.0884 1017.45 99.2267 1017.38 99.4159H1017.32L1016.61 98.9647H1016.61ZM1016.93 98.2514C1017 98.0549 1017.12 97.8657 1017.12 97.6692L1017.96 97.8657H1018.03C1017.9 98.1204 1017.83 98.3824 1017.77 98.5717L1016.93 98.2514ZM1017.25 97.3489C1017.25 97.2179 1017.32 97.0287 1017.32 96.8977L1018.22 97.0287C1018.15 97.1597 1018.15 97.3489 1018.09 97.5454L1017.24 97.3489H1017.25ZM1017.38 96.7012L1018.16 96.8322H1018.09L1017.38 96.7012ZM1017.38 96.5047C1017.45 96.3154 1017.45 96.1189 1017.45 95.9224H1018.29C1018.29 96.1771 1018.29 96.3737 1018.22 96.6284L1017.39 96.4974L1017.38 96.5047ZM1017.45 95.5367C1017.45 95.4129 1017.45 95.2819 1017.38 95.1509L1018.28 95.0199V95.5367H1017.44H1017.45ZM1017.38 94.9544V94.8889L1018.16 94.8234V94.8889L1017.38 94.9544ZM1017.38 94.7579C1017.32 94.5614 1017.32 94.3722 1017.25 94.1756L1018.09 93.9791V93.9136C1018.16 94.1684 1018.22 94.4304 1018.22 94.6924L1017.39 94.7579H1017.38ZM1017.19 93.8554C1017.12 93.6589 1017.06 93.5352 1016.99 93.4042L1017.83 93.0839C1017.9 93.2804 1017.96 93.4042 1017.96 93.6007L1017.19 93.8554ZM1016.93 93.2076L1017.64 92.8874V92.9529L1016.93 93.2149V93.2076ZM1016.87 93.0766C1016.8 92.8874 1016.74 92.6909 1016.61 92.4944L1017.32 92.1086H1017.39C1017.52 92.3052 1017.59 92.5599 1017.72 92.7564L1016.88 93.0766H1016.87ZM1016.42 92.2397C1016.35 92.1086 1016.29 91.9849 1016.22 91.8539L1016.87 91.3372C1017 91.4682 1017.12 91.6574 1017.19 91.7884L1016.42 92.2397ZM1015.97 91.5264C1015.84 91.4027 1015.71 91.2716 1015.58 91.0751L1016.22 90.4929C1016.35 90.6894 1016.54 90.8786 1016.67 91.0096V91.0751L1015.97 91.5264ZM1015.32 90.8859C1015.26 90.7549 1015.13 90.6312 1015 90.5657L1015.51 89.8597C1015.64 89.9907 1015.83 90.1144 1015.96 90.2454L1015.32 90.8932L1015.32 90.8859ZM1014.87 90.4347L1015.39 89.8524L1014.94 90.4347H1014.87ZM1014.74 90.3692C1014.55 90.2381 1014.43 90.1071 1014.23 89.9834L1014.68 89.2702C1014.87 89.4012 1015.06 89.5322 1015.26 89.6632L1014.74 90.3764V90.3692ZM1013.91 89.8524C1013.78 89.7214 1013.66 89.6559 1013.53 89.5977L1013.85 88.8189C1014.04 88.8844 1014.16 88.9499 1014.36 89.0736L1013.91 89.8524ZM1013.2 89.4667C1013.01 89.4012 1012.82 89.3357 1012.62 89.2702L1012.88 88.4332C1013.08 88.4987 1013.33 88.6224 1013.53 88.6879L1013.21 89.4667H1013.2ZM1012.3 89.2046C1012.17 89.1391 1011.98 89.1391 1011.85 89.0736L1011.98 88.2367C1012.18 88.3022 1012.37 88.3022 1012.5 88.3677L1012.3 89.2046ZM1011.72 89.0736H1011.66L1011.79 88.3022L1011.72 89.0736ZM1011.53 89.0736C1011.34 89.0081 1011.08 89.0081 1010.89 89.0081V88.1712H1011.66L1011.53 89.0736ZM1007.61 89.9834C1007.81 89.8524 1007.93 89.7869 1008.13 89.6632H1008.19L1008.39 89.5977C1008.58 89.5322 1008.71 89.4667 1008.9 89.4012H1008.97L1009.1 89.3357H1009.23C1009.42 89.2702 1009.61 89.2701 1009.81 89.2046H1010.13V89.1391H1010.58V91.8539C1010 91.9194 1009.42 92.0431 1008.97 92.3051L1007.62 89.9834H1007.61ZM1010.9 89.1391C1011.09 89.1391 1011.28 89.1391 1011.47 89.2046H1011.79C1011.99 89.2701 1012.11 89.2702 1012.24 89.3357H1012.31L1012.5 89.4012H1012.57C1012.76 89.4667 1012.95 89.5322 1013.15 89.5977V89.6632H1013.21C1013.28 89.6632 1013.35 89.7287 1013.41 89.7287L1013.48 89.7942C1013.61 89.7942 1013.73 89.9252 1013.86 89.9907L1012.51 92.3124C1012 92.0577 1011.48 91.9267 1010.9 91.8612V89.1464L1010.9 89.1391ZM1016.49 92.6254C1016.62 92.8219 1016.69 93.0111 1016.74 93.2076L1016.81 93.2732C1016.81 93.3387 1016.81 93.4042 1016.88 93.4042V93.4697C1016.94 93.6589 1017.01 93.9209 1017.07 94.1756C1017.2 94.6269 1017.26 95.0782 1017.26 95.5949H1014.56C1014.56 95.0126 1014.37 94.4304 1014.17 93.9791L1016.48 92.6254H1016.49ZM1017.26 95.9224C1017.26 96.1189 1017.26 96.3082 1017.19 96.5047C1017.19 96.7667 1017.13 97.0214 1017.06 97.2834C1016.93 97.8657 1016.74 98.3752 1016.48 98.8919L1014.11 97.5382C1014.37 97.0214 1014.49 96.5047 1014.56 95.9224H1017.26ZM1016.3 99.1539C1016.23 99.3504 1016.1 99.5396 1015.98 99.7362L1015.85 99.8672L1015.78 99.9327C1015.65 100.064 1015.59 100.195 1015.53 100.253L1015.4 100.318L1015.33 100.449L1015.2 100.515H1015.27C1015.07 100.646 1014.94 100.77 1014.82 100.901H1014.75V100.966L1014.69 101.032C1014.49 101.163 1014.37 101.228 1014.17 101.352L1012.82 98.9647C1013.02 98.8337 1013.27 98.6444 1013.47 98.4479C1013.66 98.2514 1013.85 98.0622 1013.98 97.8002L1016.3 99.1539ZM1013.85 101.541C1013.72 101.607 1013.53 101.73 1013.34 101.796V101.73L1013.21 101.796L1013.14 101.861L1013.01 101.927C1012.88 101.927 1012.75 101.992 1012.62 102.051H1012.55C1012.49 102.051 1012.36 102.116 1012.29 102.116H1012.23C1011.97 102.182 1011.78 102.247 1011.53 102.247H1011.4C1011.2 102.313 1011.08 102.313 1010.88 102.313V99.5979C1011.46 99.5324 1011.98 99.4086 1012.49 99.1466L1013.84 101.534L1013.85 101.541ZM1010.58 102.313C1010.38 102.313 1010.18 102.313 1010 102.247H1009.68C1009.48 102.182 1009.36 102.182 1009.23 102.116C1008.91 102.051 1008.59 101.927 1008.26 101.796H1008.2C1008.01 101.73 1007.81 101.607 1007.62 101.541L1008.97 99.1539C1009.48 99.4159 1010 99.5397 1010.58 99.6052V102.32V102.313ZM1007.29 101.345C1007.16 101.279 1006.97 101.148 1006.78 101.024H1006.84L1006.78 100.959L1006.58 100.893V100.828H1006.52C1006.45 100.697 1006.32 100.631 1006.2 100.508H1006.26L1006.2 100.442L1006.07 100.311L1005.94 100.246C1005.81 100.115 1005.68 99.9909 1005.55 99.7944L1005.42 99.5979L1005.36 99.5324C1005.29 99.4014 1005.23 99.2776 1005.16 99.1466H1005.1L1007.47 97.7929C1007.66 98.0476 1007.79 98.2441 1008.05 98.4406C1008.25 98.6372 1008.44 98.8264 1008.7 99.0229L1007.29 101.345H1007.29ZM1004.98 98.8919C1004.85 98.6954 1004.78 98.5062 1004.72 98.2441H1004.65C1004.59 98.0476 1004.52 97.7929 1004.46 97.5964C1004.39 97.4654 1004.39 97.3999 1004.39 97.2762C1004.26 96.8249 1004.2 96.3736 1004.2 95.9151H1006.9C1006.9 96.4974 1007.1 97.0141 1007.35 97.5309L1004.97 98.8846L1004.98 98.8919ZM1004.2 95.6022C1004.2 95.4129 1004.2 95.1509 1004.27 94.9617V94.6414C1004.34 94.5104 1004.34 94.3212 1004.4 94.1902C1004.4 94.0592 1004.4 93.9937 1004.47 93.9355V93.87C1004.53 93.6734 1004.6 93.4842 1004.66 93.3532L1004.73 93.2222V93.1567C1004.73 93.0912 1004.79 93.0912 1004.79 93.0257C1004.86 92.902 1004.92 92.7709 1004.99 92.6399L1007.37 93.9937C1007.11 94.5104 1006.92 95.0272 1006.92 95.6094H1004.21L1004.2 95.6022ZM1019.45 86.9484H1010.76C1015.53 86.9484 1019.45 90.8859 1019.45 95.7332V86.9484ZM1012.63 88.4332H1012.69L1012.5 89.2046L1012.63 88.4332H1012.63ZM1015.98 90.4347H1016.04L1015.53 91.0169L1015.46 90.9514L1015.98 90.4347ZM1016.04 101.017L1015.98 101.083L1015.46 100.5H1015.53L1016.04 101.017ZM1005.49 101.083L1005.43 101.017L1005.94 100.5H1006.01L1005.49 101.083ZM1008.78 88.4259H1008.84L1008.97 89.1974L1008.78 88.4259ZM1016.75 91.1989L1016.11 91.7156V91.6501L1016.75 91.1989ZM1007.81 102.691L1007.74 102.626L1008.06 101.92L1007.81 102.691ZM1006.07 101.658V101.592L1006.59 101.01L1006.07 101.658ZM1006.26 89.7068V89.6413L1006.71 90.2891V90.3546L1006.26 89.7068ZM1007.94 88.7388L1008.26 89.4521L1008.2 89.5176L1007.94 88.7388ZM1010.76 86.9339H1002.02V95.7186C1002.02 90.8786 1005.94 86.9339 1010.76 86.9339ZM1002.02 95.7186V104.503H1010.76C1005.94 104.503 1002.02 100.566 1002.02 95.7186ZM1010.76 104.503H1019.45V95.7186C1019.45 100.559 1015.53 104.503 1010.76 104.503ZM1010.76 104.052C1006.2 104.052 1002.47 100.304 1002.47 95.7186C1002.47 91.1334 1006.2 87.4579 1010.76 87.4579C1015.33 87.4579 1019 91.1989 1019 95.7186C1019 100.238 1015.27 104.052 1010.76 104.052ZM1018.09 103.535C1017.71 103.535 1017.45 103.281 1017.45 102.829C1017.45 102.509 1017.71 102.247 1018.09 102.247C1018.41 102.247 1018.74 102.502 1018.74 102.829C1018.74 103.281 1018.42 103.535 1018.09 103.535ZM1018.09 89.0736C1017.71 89.0736 1017.45 88.7534 1017.45 88.4259C1017.45 88.0401 1017.71 87.7781 1018.09 87.7781C1018.41 87.7781 1018.74 88.0329 1018.74 88.4259C1018.74 88.7461 1018.42 89.0736 1018.09 89.0736ZM1003.49 89.0736C1003.11 89.0736 1002.85 88.7534 1002.85 88.4259C1002.85 88.0401 1003.11 87.7781 1003.49 87.7781C1003.88 87.7781 1004.14 88.0329 1004.14 88.4259C1004.14 88.7461 1003.89 89.0736 1003.49 89.0736ZM1003.49 103.535C1003.11 103.535 1002.85 103.281 1002.85 102.829C1002.85 102.509 1003.11 102.247 1003.49 102.247C1003.88 102.247 1004.14 102.502 1004.14 102.829C1004.14 103.281 1003.89 103.535 1003.49 103.535ZM1019.7 86.6791V104.758H1001.76V86.6791H1019.7ZM1019.77 84.7431H1018.55V86.0314H1019.77V84.7431ZM1002.86 84.7431H1001.64V86.0314H1002.86V84.7431ZM1004.4 84.7431H1003.18V86.0314H1004.4V84.7431ZM1005.94 84.7431H1004.72V86.0314H1005.94V84.7431ZM1007.42 84.7431H1006.26V86.0314H1007.42V84.7431ZM1008.97 84.7431H1007.74V86.0314H1008.97V84.7431ZM1010.51 84.7431H1009.29V86.0314H1010.51V84.7431ZM1012.05 84.7431H1010.84V86.0314H1012.05V84.7431ZM1013.6 84.7431H1012.37V86.0314H1013.6V84.7431ZM1015.14 84.7431H1013.92V86.0314H1015.14V84.7431ZM1016.69 84.7431H1015.47V86.0314H1016.69V84.7431ZM1018.23 84.7431H1017.01V86.0314H1018.23V84.7431ZM1000.93 106.636H1001.19V84.7431H1000.93V106.636ZM999.638 106.636H999.957V84.7431H999.638V106.636ZM1000.28 106.636H1000.6V84.7431H1000.28V106.636ZM1020.28 106.636H1020.67V84.7431H1020.28V106.636ZM1021.56 106.636H1021.88V84.7431H1021.56V106.636ZM1020.93 106.636H1021.25V84.7431H1020.93V106.636Z" fill="#455A64"/>
    <path fill-rule="evenodd" clip-rule="evenodd" d="M1222.97 80.4576V79.8423L1221.17 78.9639V82.001L1222.97 80.4576ZM1183.21 64.0814H1196.38V67.9124H1183.21V64.0814ZM1196.38 68.5278V74.3835H1183.21V68.5278H1196.38ZM1196.38 75.3066V85.827H1183.21V75.3066H1196.38ZM1186.56 65.2674H1188.8V65.7488H1186.56V65.2674ZM1194.27 70.4185V73.1032H1192.15V70.4185C1192.15 69.9322 1192.68 69.5352 1193.21 69.5352C1193.82 69.5352 1194.27 69.9322 1194.27 70.4185ZM1190.92 70.4185V73.1032H1188.81V70.4185C1188.81 69.9322 1189.25 69.5352 1189.86 69.5352C1190.44 69.5352 1190.92 69.9322 1190.92 70.4185ZM1187.53 70.4185V73.1032H1185.42V70.4185C1185.42 69.9322 1185.86 69.5352 1186.48 69.5352C1187.05 69.5352 1187.53 69.9322 1187.53 70.4185ZM1190.83 78.2543H1193.08V78.6959H1190.83V78.2543ZM1188.06 78.3436H1190.3V78.7853H1188.06V78.3436ZM1189.65 78.9143H1191.89V79.3957H1189.65V78.9143ZM1190.97 79.748H1193.21V80.2343H1190.97V79.748ZM1188.33 79.748H1190.57V80.2343H1188.33V79.748ZM1186.61 84.2391H1188.81V84.7204H1186.61V84.2391ZM1185.51 83.6684H1187.76V84.1547H1185.51V83.6684ZM1184.41 83.053H1186.65V83.4947H1184.41V83.053ZM1192.95 82.919H1195.19V83.4054H1192.95V82.919ZM1191.67 64.7364H1193.91V65.2228H1191.67V64.7364ZM1188.15 66.3641H1190.39V66.8505H1188.15V66.3641ZM1166 98.3276H1188.28V115.761H1166V98.3276ZM1188.28 116.51V135.174H1166V116.51H1188.28ZM1182.38 130.291H1186.17V131.085H1182.38V130.291ZM1178.81 122.321H1182.6V123.115H1178.81V122.321ZM1174.19 122.5H1177.97V123.294H1174.19V122.5ZM1176.83 123.512H1180.61V124.301H1176.83V123.512ZM1179.03 124.922H1182.82V125.716H1179.03V124.922ZM1174.59 124.922H1178.33V125.716H1174.59V124.922ZM1171.59 132.539H1175.38V133.333H1171.59V132.539ZM1169.79 131.527H1173.57V132.321H1169.79V131.527ZM1167.98 130.47H1171.77V131.308H1167.98V130.47ZM1173.18 109.116V113.652H1169.61V109.116C1169.61 108.277 1170.4 107.573 1171.41 107.573C1172.43 107.573 1173.18 108.277 1173.18 109.116ZM1184.71 109.116V113.652H1181.15V109.116C1181.15 108.277 1181.89 107.573 1182.91 107.573C1183.92 107.573 1184.71 108.277 1184.71 109.116ZM1178.95 109.116V113.652H1175.38V109.116C1175.38 108.277 1176.17 107.573 1177.14 107.573C1178.11 107.573 1178.95 108.277 1178.95 109.116ZM1171.55 100.397H1175.34V101.186H1171.55V100.397ZM1180.27 99.469H1184.06V100.263H1180.27V99.469ZM1174.24 102.198H1178.02V103.037H1174.24V102.198ZM1166 104.312H1188.29V105.106H1166V104.312ZM1189.87 55L1185.47 58.6971H1194.54L1189.87 55H1189.87ZM1193.66 58.8311V63.7638H1186.39V58.8311H1193.66ZM1189.21 60.7267H1190.7V59.2727H1189.21V60.7267ZM1227.69 76.6663L1221.48 81.9067H1234.34L1227.69 76.6663ZM1232.93 82.259V89.2611H1236.85V119.686H1218.4V89.2611H1222.85V82.259H1232.93ZM1226.77 84.6361H1228.84V82.5667H1226.77V84.6361ZM1223.02 90.9781H1226.15V91.5935H1223.02V90.9781ZM1233.9 98.1986V101.896H1230.95V98.1986C1230.95 97.4939 1231.56 96.9182 1232.4 96.9182C1233.2 96.9182 1233.9 97.4889 1233.9 98.1986ZM1229.15 98.1986V101.896H1226.2V98.1986C1226.2 97.4939 1226.86 96.9182 1227.65 96.9182C1228.44 96.9182 1229.15 97.4889 1229.15 98.1986ZM1224.39 98.1986V101.896H1221.44V98.1986C1221.44 97.4939 1222.1 96.9182 1222.9 96.9182C1223.73 96.9182 1224.39 97.4889 1224.39 98.1986ZM1229.02 109.071H1232.15V109.731H1229.02V109.071ZM1225.19 109.2H1228.31V109.86H1225.19V109.2ZM1227.39 110.039H1230.56V110.744H1227.39V110.039ZM1229.24 111.23H1232.36V111.89H1229.24V111.23ZM1225.5 111.23H1228.67V111.89H1225.5V111.23ZM1223.07 117.528H1226.2V118.188H1223.07V117.528ZM1221.58 116.689H1224.7V117.349H1221.58V116.689ZM1220.08 115.85H1223.2V116.51H1220.08V115.85ZM1232.01 115.676H1235.14V116.292H1232.01V115.676ZM1230.2 90.2288H1233.33V90.8441H1230.2V90.2288ZM1225.27 92.4718H1228.4V93.1318H1225.27V92.4718ZM1218.4 94.1889H1236.85V95.0672H1218.4V94.1889ZM1218.4 103.697H1236.85V105.548H1218.4V103.697ZM1177.2 83.0927L1169.67 89.3901H1185.25L1177.2 83.0927ZM1183.58 89.7425V97.7122H1171.34V89.7425H1183.58ZM1176.09 92.7349H1178.6V90.2238H1176.09V92.7349ZM1188.86 110.61L1189.48 110.302V115.012L1190.49 114.57V109.86L1192.6 108.848V113.558L1193.57 113.076V108.367L1195.69 107.354V112.064L1196.7 111.577V106.868L1198.81 105.856V110.565L1199.78 110.084V105.374L1201.89 104.362V109.071L1202.91 108.63V103.876L1205.02 102.863V107.573L1205.99 107.131V102.422L1208.1 101.365V106.074L1209.11 105.632V100.923L1211.18 99.9106V104.62L1212.2 104.134V99.4243L1214.31 98.412V103.121L1215.28 102.635V97.9256L1217.39 96.9133V101.628L1217.83 101.454V117.304L1188.86 131.219V110.615V110.61ZM1221.18 81.991V82.9587L1220.34 82.5617V78.5123L1218.49 77.629V81.7231L1217.66 81.2814V77.232L1215.85 76.3487V80.4427L1214.97 80.0011V75.9517L1213.21 75.0733V79.1674L1212.33 78.7257V74.6763L1210.52 73.8426V77.8474L1209.69 77.4504V73.401L1207.84 72.5176V76.567L1207 76.17V72.1206L1205.19 71.2373V75.2867L1204.36 74.8897V70.8403L1202.51 69.957V74.0064L1201.67 73.6094V69.56L1199.86 68.6816V72.731L1198.99 72.334V68.2846L1197.22 67.4062V71.4557L1197.01 71.3713V85.0182L1217.83 95.0126V88.6755H1222.5V81.9811H1221.18V81.991Z" fill="#455A64"/>
    <path fill-rule="evenodd" clip-rule="evenodd" d="M860.62 33.062L859.577 42.7824L824.985 39.0286L826.028 29.3082L860.62 33.0693V33.062ZM833.062 121.765C851.111 121.765 866.678 128.893 873 139H793C799.447 128.893 814.955 121.765 833.062 121.765ZM817.687 95.525L854.43 99.5416L854.239 101.747L817.43 97.7305L817.694 95.525H817.687ZM831.888 13.9499L858.336 16.7981L858.535 14.8555L832.086 12L831.888 13.9426V13.9499ZM825.308 26L862.118 29.9509L861.854 32.2221L825.11 28.2055L825.308 26ZM823.81 39.8684L860.554 43.8851L860.356 46.1564L823.546 42.1397L823.81 39.8684ZM822.313 53.8027L859.056 57.8193L858.799 60.0248L822.056 56.0739L822.313 53.8027ZM820.749 67.6711L857.558 71.6878L857.235 73.9591L820.492 69.9424L820.756 67.6711H820.749ZM819.251 81.5981L855.994 85.6147L855.73 87.886L818.986 83.8693L819.243 81.6054L819.251 81.5981ZM854.885 28.5341L856.126 17.3897L833.914 14.9943L832.673 26.1387L854.885 28.5341ZM839.774 20.5008L839.385 24.4517L835.544 24.0646L835.933 20.1137C836.066 19.0109 837.042 18.1711 838.085 18.2952C839.128 18.4267 839.913 19.398 839.781 20.5008H839.774ZM852.998 21.9906L852.543 25.9415L848.703 25.4887L849.158 21.5378C849.29 20.435 850.267 19.6609 851.309 19.7851C852.352 19.8508 853.138 20.8221 853.006 21.9906H852.998ZM846.419 21.2749L845.964 25.2258L842.123 24.773L842.579 20.8221C842.645 19.7193 843.621 18.8795 844.73 19.0767C845.773 19.1424 846.492 20.1137 846.426 21.2749H846.419ZM829.611 31.6452L828.899 38.0573L826.615 37.8017L827.335 31.3896C827.401 30.8711 827.922 30.484 828.576 30.5424C829.229 30.6082 829.685 31.061 829.619 31.6452H829.611ZM851.955 90.9313L851.17 97.3507L848.952 97.0878L849.672 90.6757C849.738 90.1572 850.259 89.7701 850.913 89.8359C851.5 89.9673 851.955 90.4201 851.955 90.9386V90.9313ZM848.761 90.5443L848.042 97.0294L845.765 96.7665L846.485 90.3544C846.551 89.8359 847.073 89.4488 847.726 89.5145C848.38 89.5803 848.835 90.0988 848.769 90.5516L848.761 90.5443ZM845.567 90.2887L844.848 96.6423L842.63 96.4452L843.284 89.9674C843.35 89.4489 843.937 89.1202 844.583 89.1932C845.171 89.259 845.626 89.7117 845.56 90.296L845.567 90.2887ZM842.439 89.9016L841.72 96.3137L839.443 96.0581L840.163 89.646C840.229 89.1275 840.75 88.7989 841.397 88.7989C842.05 88.9303 842.505 89.3831 842.439 89.9016ZM839.245 89.5145L838.525 95.9924L836.308 95.7367L836.961 89.3247C837.028 88.8062 837.615 88.4191 838.202 88.4775C838.856 88.5432 839.311 89.0618 839.245 89.5145ZM836.117 89.2589L835.397 95.6053L833.114 95.4081L833.767 88.9303C833.833 88.4118 834.421 88.0905 835.067 88.1562C835.721 88.2219 836.176 88.6747 836.11 89.2589H836.117ZM832.923 88.8719L832.211 95.284L829.927 95.0284L830.647 88.6747C830.713 88.0905 831.3 87.7691 831.88 87.7691C832.534 87.9006 832.989 88.3534 832.923 88.8719ZM829.729 88.5506L829.075 94.9626L826.733 94.707L827.452 88.2876C827.519 87.7691 828.106 87.3821 828.752 87.4478C829.34 87.5135 829.795 88.0321 829.729 88.5506ZM826.601 88.2292L825.881 94.6413L823.598 94.3857L824.317 87.9663C824.383 87.4478 824.971 87.0607 825.558 87.1265C826.145 87.1922 826.667 87.645 826.601 88.2292ZM823.407 87.8422L822.753 94.2542L820.411 93.9913L821.13 87.645C821.196 87.0607 821.718 86.7394 822.371 86.7394C823.025 86.8708 823.48 87.3236 823.414 87.8422H823.407ZM853.439 76.8876L852.785 83.2997L850.443 83.044L851.162 76.6247C851.229 76.1062 851.75 75.7848 852.403 75.7848C853.057 75.9163 853.512 76.3691 853.446 76.8876H853.439ZM850.311 76.5662L849.532 82.9783L847.315 82.7227L848.034 76.3034C848.101 75.7848 848.622 75.3978 849.275 75.4635C849.863 75.5292 850.318 76.0477 850.318 76.5662H850.311ZM847.117 76.2376L846.397 82.657L844.113 82.4014L844.833 75.9236C844.899 75.4708 845.42 75.0837 846.074 75.1495C846.727 75.2152 847.183 75.668 847.117 76.2449V76.2376ZM843.989 75.8506L843.21 82.2626L840.993 82.0728L841.646 75.6534C841.778 75.0691 842.3 74.7478 842.946 74.7478C843.533 74.8792 843.989 75.332 843.989 75.8506ZM840.794 75.5219L840.075 81.9413L837.799 81.6784L838.518 75.2663C838.584 74.7478 839.106 74.3607 839.759 74.4192C840.413 74.4849 840.868 75.0034 840.802 75.5219H840.794ZM837.6 75.2006L836.881 81.6127L834.663 81.3497L835.317 74.872C835.383 74.4192 835.97 74.0248 836.558 74.0905C837.211 74.1563 837.666 74.609 837.6 75.1933V75.2006ZM834.472 74.8135L833.753 81.2256L831.469 81.0284L832.189 74.6163C832.189 74.0321 832.776 73.7108 833.43 73.7108C834.083 73.8422 834.538 74.295 834.472 74.8135ZM831.278 74.4849L830.559 80.9043L828.341 80.6414L828.994 74.2293C829.061 73.7108 829.648 73.3237 830.228 73.4552C830.882 73.4552 831.337 73.9737 831.271 74.4922L831.278 74.4849ZM828.084 74.1636L827.43 80.5829L825.088 80.32L825.808 73.8422C825.874 73.3894 826.461 73.0024 827.107 73.0681C827.695 73.1338 828.216 73.5866 828.084 74.1708V74.1636ZM824.956 73.7765L824.236 80.1959L821.953 79.9987L822.672 73.5866C822.738 73.0024 823.326 72.681 823.913 72.681C824.501 72.8125 825.022 73.2653 824.956 73.7838V73.7765ZM854.988 62.8292L854.268 69.2413L851.992 69.0441L852.712 62.5663C852.778 62.0478 853.299 61.7192 853.953 61.7849C854.54 61.8506 855.062 62.3034 854.995 62.8219L854.988 62.8292ZM851.794 62.5006L851.14 68.92L848.798 68.6571L849.518 62.245C849.584 61.7265 850.171 61.3394 850.759 61.4051C851.412 61.4709 851.867 61.9894 851.801 62.5079L851.794 62.5006ZM848.666 62.1793L847.946 68.5913L845.663 68.3357L846.382 61.9236C846.448 61.4051 846.97 61.0181 847.616 61.0838C848.203 61.1495 848.659 61.6023 848.659 62.1865L848.666 62.1793ZM845.472 61.7922L844.752 68.2116L842.469 68.0144L843.188 61.6023C843.254 61.0181 843.776 60.6967 844.422 60.7625C845.075 60.8282 845.531 61.281 845.464 61.7995L845.472 61.7922ZM842.344 61.4709L841.558 67.8829L839.341 67.6273L839.994 61.2152C840.126 60.6967 840.648 60.3097 841.294 60.3754C841.881 60.4411 842.336 60.9596 842.336 61.4781L842.344 61.4709ZM839.15 61.1495L838.43 67.5616L836.154 67.2987L836.873 60.8866C836.939 60.3681 837.461 59.9737 838.114 60.0394C838.768 60.1052 839.223 60.6237 839.157 61.1422L839.15 61.1495ZM835.955 60.8282L835.236 67.1745L833.018 66.9847L833.672 60.5726C833.738 59.9883 834.325 59.667 834.972 59.7254C835.559 59.7911 836.014 60.2439 835.948 60.8282H835.955ZM832.827 60.4411L832.108 66.8532L829.832 66.5976L830.551 60.1855C830.551 59.667 831.139 59.2726 831.792 59.4041C832.446 59.4698 832.901 59.9226 832.835 60.4411H832.827ZM829.633 60.1125L828.914 66.5246L826.696 66.269L827.35 59.8496C827.416 59.3311 828.003 58.944 828.591 59.0097C829.244 59.0755 829.699 59.594 829.633 60.1125ZM826.505 59.7839L825.786 66.1375L823.443 65.9476L824.163 59.5282C824.229 58.944 824.816 58.6227 825.463 58.6884C826.116 58.7541 826.571 59.2069 826.505 59.7839ZM856.471 48.8366L855.818 55.1829L853.534 54.9931L854.254 48.5152C854.254 47.9967 854.841 47.6681 855.429 47.7338C856.082 47.7996 856.604 48.2523 856.471 48.8366ZM853.343 48.4495L852.624 54.8616L850.34 54.606L851.06 48.2597C851.126 47.6754 851.647 47.3541 852.301 47.3541C852.888 47.4855 853.409 47.9383 853.343 48.4568V48.4495ZM850.149 48.0625L849.496 54.5403L847.153 54.2847L847.939 47.8653C847.939 47.3468 848.526 46.9597 849.106 47.0912C849.76 47.0912 850.215 47.6097 850.149 48.0625ZM847.021 47.7996L846.302 54.2189L844.025 53.9633L844.745 47.4782C844.811 47.0254 845.332 46.6384 845.986 46.7041C846.573 46.7698 847.028 47.2226 847.028 47.8068L847.021 47.7996ZM843.827 47.4125L843.107 53.8319L840.824 53.5763L841.536 47.2226C841.602 46.6384 842.123 46.317 842.777 46.317C843.43 46.4485 843.886 46.9013 843.82 47.4198L843.827 47.4125ZM840.699 47.0912L839.913 53.5105L837.696 53.2549L838.349 46.8355C838.481 46.317 839.003 45.93 839.649 46.0614C840.236 46.0614 840.692 46.58 840.692 47.0985L840.699 47.0912ZM837.505 46.7698L836.785 53.1892L834.502 52.9263L835.221 46.5142C835.287 45.9957 835.809 45.6086 836.462 45.6744C837.116 45.7401 837.571 46.1929 837.505 46.7771V46.7698ZM834.311 46.3828L833.591 52.7948L831.374 52.5319L832.027 46.1856C832.159 45.6013 832.681 45.2727 833.334 45.2727C833.922 45.4042 834.377 45.8569 834.311 46.3755V46.3828ZM831.183 46.0614L830.463 52.4735L828.179 52.2179L828.899 45.8058C828.965 45.2873 829.486 44.9002 830.14 45.0244C830.793 45.0244 831.249 45.5429 831.183 46.0614ZM827.989 45.7401L827.269 52.1522L825.051 51.8966L825.705 45.4845C825.771 44.966 826.358 44.5789 826.946 44.6446C827.599 44.7104 828.055 45.1632 827.989 45.7474V45.7401ZM858.021 34.7855L857.301 41.2049L855.025 40.942L855.744 34.4642C855.81 34.0114 856.398 33.6243 857.044 33.6901C857.631 33.7558 858.087 34.2086 858.021 34.7928V34.7855ZM854.827 34.3985L854.173 40.8178L851.889 40.6206L852.609 34.2086C852.609 33.6243 853.196 33.2957 853.784 33.2957C854.437 33.4271 854.959 33.8799 854.827 34.3985ZM851.698 34.0771L850.979 40.4892L848.695 40.2336L849.415 33.8215C849.481 33.303 850.002 32.9159 850.656 33.0401C851.309 33.0401 851.765 33.5586 851.698 34.0771ZM848.504 33.7558L847.851 40.1679L845.508 39.9122L846.287 33.4929C846.287 32.9744 846.874 32.5873 847.462 32.653C848.115 32.7187 848.637 33.1715 848.504 33.7558ZM845.376 33.3687L844.657 39.7808L842.38 39.5909L843.1 33.1716C843.166 32.5873 843.687 32.266 844.341 32.266C844.928 32.3974 845.384 32.8502 845.384 33.3687H845.376ZM842.182 33.0474L841.463 39.4595L839.179 39.2039L839.899 32.7845C839.965 32.266 840.486 31.8789 841.14 32.0104C841.793 32.0104 842.248 32.5289 842.182 33.0474ZM839.054 32.7261L838.335 39.1381L836.051 38.8825L836.771 32.4632C836.837 31.9446 837.358 31.5576 838.011 31.6233C838.599 31.689 839.054 32.1418 839.054 32.7261ZM835.86 32.339L835.14 38.7511L832.857 38.5612L833.576 32.1418C833.643 31.5576 834.164 31.2362 834.817 31.302C835.471 31.3677 835.926 31.8205 835.86 32.339ZM832.732 32.0177L831.946 38.4297L829.736 38.1668L830.39 31.7548C830.522 31.2362 831.043 30.8492 831.689 30.9733C832.277 30.9733 832.732 31.4919 832.732 32.0104V32.0177ZM859.049 47.0473L858.006 56.702L823.414 52.9409L824.457 43.2863L859.049 47.04V47.0473ZM857.551 60.9815L856.442 70.6362L821.85 66.8751L822.959 57.2205L857.551 60.9815ZM855.987 74.9158L854.944 84.5704L820.352 80.8093L821.395 71.1547L855.987 74.9158ZM854.489 88.777L853.38 98.4973L818.854 94.7362L819.897 85.0159L854.489 88.7697V88.777ZM852.925 102.711L850.707 123.189C850.186 123.057 849.665 122.926 849.077 122.736L850.773 107.765C850.905 106.275 849.598 104.982 847.777 104.719C845.956 104.522 844.392 105.559 844.26 107.115L842.696 121.502C842.109 121.436 841.587 121.37 841 121.305L842.564 106.918C842.696 105.428 841.389 104.07 839.634 103.872C837.872 103.675 836.249 104.712 836.117 106.209L834.487 120.852C833.966 120.786 833.444 120.786 832.989 120.786H832.791L834.421 106.012C834.553 104.522 833.246 103.164 831.491 102.967C829.67 102.77 828.106 103.814 827.908 105.296L826.212 121.108C825.624 121.173 825.037 121.232 824.449 121.297L826.212 105.099C826.41 103.675 825.037 102.251 823.282 102.054C821.52 101.864 819.897 102.894 819.765 104.449L817.745 122.524C817.092 122.656 816.38 122.846 815.726 123.043L818.333 98.9428L852.925 102.697V102.711Z" fill="#455A64"/>
    <path fill-rule="evenodd" clip-rule="evenodd" d="M334.598 169.23L283 169.767L289.879 161.324L292.445 158.331L294.07 156.289L296.621 153.296L298.23 151.254L300.66 148.399L334.75 107L369.098 147.724C368.824 148 368.414 148.399 368.156 148.676L389.855 128.245C394.168 132.067 398.48 135.874 402.793 139.542C405.754 134.784 410.871 128.782 417.34 129.473C428.516 129.872 430.141 147.31 430.141 147.31L424.203 147.448L424.34 150.855C426.496 153.035 428.106 155.752 429.062 158.745C429.199 158.883 429.199 159.022 429.336 159.16L429.746 159.697L429.882 160.112C430.156 160.664 430.292 161.201 430.687 161.892L406.847 162.03C414.804 162.03 422.746 161.892 430.687 161.892L430.277 161.217L430.004 160.541L429.867 160.127C430.141 160.679 430.277 161.217 430.672 161.907C430.945 162.721 431.887 165.039 432.023 165.852L444.551 166.405C446.57 166.942 447.649 166.82 449 173.482L410.203 173.758C410.34 174.433 391.875 173.482 391.875 173.482L352.531 173.082C352.531 173.082 352.531 170.626 352.258 169.537L334.613 169.26L334.598 169.23ZM371.907 153.572C372.454 153.71 372.985 153.987 373.653 154.248C372.985 153.971 372.438 153.71 371.907 153.572ZM389.157 168.692C388.747 168.278 388.215 168.017 387.669 167.741C388.2 168.017 388.747 168.278 389.157 168.692ZM429.305 159.16C429.169 159.022 429.169 158.883 429.032 158.745L429.305 159.16Z" fill="#455A64"/>
    <path fill-rule="evenodd" clip-rule="evenodd" d="M245.13 90.4184V92.1155H236.429V101.226H240.184L237.57 102.074V131H231.829V102.132L229.158 101.226H232.963V92.1155H204.03V101.226H207.842L205.229 102.074V131H199.43V102.132L196.874 101.226H200.622V92.1155H191.928V90.4184H189.596V89.1744H200.622V84.2492H198.008V82.3225C194.427 81.8121 190.737 81.1933 187.04 80.4533V76.2618C185.675 76.0385 184.253 75.7514 182.831 75.4133V72.0128C181.242 71.7321 179.595 71.3876 178 71.0559V68C205.337 72.587 232.342 72.3 259 68V71.0559C257.411 71.394 255.816 71.7321 254.169 72.0128V75.4133C252.805 75.7514 251.382 76.0385 249.967 76.3192V80.4533C246.385 81.2507 242.689 81.927 238.998 82.4374V84.2492H236.436V89.1744H247.41V90.4184H245.136H245.13ZM206.651 83.2859V84.2492H204.037V89.1744H215.915V83.7388C212.846 83.6814 209.777 83.5155 206.651 83.2859ZM232.97 84.2492H230.356V83.3433C227.338 83.624 224.218 83.7388 221.149 83.7962V89.1744H232.97V84.2492Z" fill="#455A64"/>
    <path d="M113.843 73.5492C115.199 70.9245 118.174 64.9996 118.174 64.9996L118.419 64.5124C118.915 64.5606 119.464 64.5513 120.041 64.4684C121.974 64.2031 123.441 63.2703 123.32 62.3886C123.206 61.5791 121.798 61.0988 120.072 61.2279L123.85 53.7406C124.398 53.8123 125.029 53.8125 125.695 53.7218C127.627 53.4564 129.095 52.5236 128.974 51.642C128.854 50.7943 127.313 50.3065 125.48 50.4997L129.731 42.0727C129.731 42.0727 144.698 39.9188 145.428 36.0279C143.674 32.4756 128.682 34.4515 128.682 34.4515L122.312 27.492C124.132 27.1886 125.481 26.2946 125.366 25.4511C125.246 24.5694 123.581 24.0738 121.648 24.3392C120.982 24.4299 120.375 24.5992 119.868 24.82L114.207 18.6375C115.906 18.2963 117.13 17.4501 117.016 16.6406C116.895 15.7589 115.23 15.2633 113.297 15.5287C112.721 15.6115 112.185 15.7482 111.723 15.9287L111.358 15.5257C111.358 15.5257 106.89 10.6336 104.877 8.47269C102.863 6.31183 100.23 6.85684 100.23 6.85684L113.514 36.3706C102.766 37.6727 96.9199 39.8345 96.9199 39.8345L89.8847 32.0408L86.3369 32.5289L90.4914 41.7129C87.2226 42.8845 87.2018 44.0617 87.2018 44.0617C87.2018 44.0617 87.5371 45.1904 91.0078 45.4343L89.491 55.4007L93.0388 54.9127L97.7023 45.5058C97.7023 45.5058 103.911 46.0061 114.615 44.3519L109.813 76.354C109.813 76.354 112.494 76.165 113.851 73.5404L113.843 73.5492Z" fill="#263238"/>
    <path d="M933.128 17.2989C931.497 19.7622 927.9 25.3321 927.9 25.3321L927.605 25.7901C927.116 25.6887 926.569 25.6388 925.987 25.6591C924.037 25.7147 922.478 26.484 922.503 27.3735C922.529 28.1906 923.878 28.8199 925.607 28.8774L921.045 35.9141C920.507 35.7838 919.88 35.7156 919.209 35.7341C917.258 35.7897 915.699 36.559 915.725 37.4486C915.752 38.3041 917.232 38.9551 919.075 38.9606L913.941 46.8806C913.941 46.8806 898.829 47.4095 897.684 51.1992C899.045 54.9197 914.162 54.5704 914.162 54.5704L919.746 62.1757C917.904 62.2812 916.466 63.0246 916.489 63.8756C916.514 64.7652 918.116 65.4373 920.067 65.3817C920.738 65.3632 921.36 65.2602 921.887 65.0954L926.85 71.8518C925.124 72.0079 923.816 72.7175 923.842 73.5345C923.867 74.424 925.469 75.0961 927.419 75.0406C928.001 75.0203 928.549 74.9421 929.027 74.8124L929.347 75.2524C929.347 75.2524 933.262 80.5974 935.031 82.9626C936.8 85.3278 939.477 85.0697 939.477 85.0697L929.449 54.2966C940.275 54.1599 946.32 52.6405 946.32 52.6405L952.474 61.1467L956.054 61.0437L952.913 51.4656C956.289 50.653 956.437 49.4849 956.437 49.4849C956.437 49.4849 956.225 48.3266 952.801 47.7102L955.383 37.9652L951.803 38.0682L946.153 46.9179C946.153 46.9179 940.034 45.7517 929.214 46.243L937.436 14.9446C937.436 14.9446 934.75 14.8435 933.119 17.3068L933.128 17.2989Z" fill="#263238"/>
</svg>
