<svg width="100%" height="auto" viewBox="0 0 1068 514" fill="none" xmlns="http://www.w3.org/2000/svg">
    <path d="M-1 24C59 -3.99993 194.796 -19.7902 256 69.5003C329 176 230.915 205.749 186.5 208.5C130 212 71.7222 145.5 114.5 90.5C157.278 35.5 303.638 24.1228 443.5 223.5C537.5 357.5 485.5 457 660.5 506C808.315 547.388 878.5 363.5 878.5 299C878.5 234.5 843.5 180 762.5 214C693.376 243.015 709.132 363.174 814 355.5C916.5 348 1052 192 1052 68" stroke="#0892DC" stroke-width="3" stroke-dasharray="10 10"/>
    <path d="M1065.18 69.4702L1055.1 58.0534L1055.39 53.2442C1055.44 52.485 1055.32 51.711 1055.03 50.9799L1054.82 50.4989C1054.57 49.8554 1053.99 49.4336 1053.3 49.3971C1052.62 49.3607 1051.99 49.718 1051.68 50.3046L1051.37 50.8108C1051.01 51.4818 1050.8 52.2369 1050.75 52.9973L1050.46 57.8065L1039.04 68.0763C1038.46 68.5993 1038.11 69.3168 1038.07 70.0982L1037.98 71.4693C1037.97 71.6834 1038.07 71.8861 1038.25 71.9977C1038.43 72.1106 1038.66 72.1156 1038.84 72.0082L1050.21 65.5253C1050.21 67.3011 1050.26 68.7863 1050.33 70.5939L1050.4 72.4462L1046.17 74.9359C1046 75.0372 1045.89 75.2145 1045.88 75.411L1045.81 76.5808C1045.8 76.7575 1045.87 76.9302 1046 77.0486C1046.13 77.1683 1046.31 77.2199 1046.48 77.1904L1051.64 76.3187L1056.67 77.7328C1056.71 77.7443 1056.75 77.7512 1056.79 77.7535C1056.92 77.7604 1057.05 77.7228 1057.16 77.6441C1057.3 77.5391 1057.39 77.3749 1057.41 77.1982L1057.48 76.0284C1057.49 75.8319 1057.4 75.643 1057.25 75.5267L1053.35 72.6082L1053.65 70.7697C1053.94 68.9835 1054.18 67.5149 1054.4 65.7507L1064.89 73.3949C1065.06 73.5214 1065.29 73.5393 1065.48 73.4473C1065.67 73.3555 1065.8 73.1652 1065.81 72.9511L1065.9 71.58C1065.94 70.7986 1065.69 70.0491 1065.18 69.4702Z" fill="#0892DC"/>
</svg>
