<svg width="201" height="100" viewBox="0 0 201 100" fill="none" xmlns="http://www.w3.org/2000/svg">
    <path d="M200.485 93.6412C200.485 90.6649 155.606 88.2529 100.242 88.2529C44.8786 88.2529 0 90.6649 0 93.6412C0 96.6174 44.8786 99.0294 100.242 99.0294C155.606 99.0294 200.485 96.6174 200.485 93.6412Z" fill="#03045E"/>
    <path d="M136.666 0H68.9276C67.0346 0 65.5 1.5346 65.5 3.42761V20.1942C65.5 22.0872 67.0346 23.6218 68.9276 23.6218H136.666C138.559 23.6218 140.094 22.0872 140.094 20.1942V3.42761C140.094 1.5346 138.559 0 136.666 0Z" fill="white"/>
    <path d="M98.4553 7.87961L98.9161 9.29485C98.949 9.39359 99.0383 9.45941 99.1418 9.45941H100.628C100.858 9.45941 100.957 9.75563 100.769 9.89198L99.5649 10.7665C99.4803 10.8276 99.4474 10.9358 99.4803 11.0345L99.9411 12.4498C100.012 12.6707 99.7624 12.8541 99.5743 12.7178L98.3707 11.8432C98.286 11.7821 98.1732 11.7821 98.0886 11.8432L96.8849 12.7178C96.6968 12.8541 96.4429 12.6707 96.5182 12.4498L96.9789 11.0345C97.0119 10.9358 96.9789 10.8276 96.8943 10.7665L95.6907 9.89198C95.5026 9.75563 95.6013 9.45941 95.8317 9.45941H97.3175C97.4209 9.45941 97.5149 9.39359 97.5432 9.29485L98.0039 7.87961C98.0745 7.65862 98.3895 7.65862 98.46 7.87961H98.4553Z" fill="#FBBE42"/>
    <path d="M106.703 7.87961L107.164 9.29485C107.197 9.39359 107.286 9.45941 107.389 9.45941H108.875C109.106 9.45941 109.204 9.75563 109.016 9.89198L107.813 10.7665C107.728 10.8276 107.695 10.9358 107.723 11.0345L108.184 12.4498C108.255 12.6707 108.005 12.8541 107.817 12.7178L106.614 11.8432C106.529 11.7821 106.416 11.7821 106.332 11.8432L105.128 12.7178C104.94 12.8541 104.686 12.6707 104.761 12.4498L105.222 11.0345C105.255 10.9358 105.222 10.8276 105.133 10.7665L103.929 9.89198C103.741 9.75563 103.84 9.45941 104.07 9.45941H105.556C105.659 9.45941 105.753 9.39359 105.781 9.29485L106.242 7.87961C106.313 7.65862 106.628 7.65862 106.698 7.87961H106.703Z" fill="#FBBE42"/>
    <path d="M114.954 7.87961L115.415 9.29485C115.448 9.39359 115.537 9.45941 115.64 9.45941H117.126C117.357 9.45941 117.455 9.75563 117.267 9.89198L116.064 10.7665C115.979 10.8276 115.946 10.9358 115.974 11.0345L116.435 12.4498C116.506 12.6707 116.256 12.8541 116.068 12.7178L114.865 11.8432C114.78 11.7821 114.667 11.7821 114.583 11.8432L113.379 12.7178C113.191 12.8541 112.937 12.6707 113.012 12.4498L113.473 11.0345C113.506 10.9358 113.473 10.8276 113.384 10.7665L112.18 9.89198C111.992 9.75563 112.091 9.45941 112.321 9.45941H113.807C113.91 9.45941 114.004 9.39359 114.032 9.29485L114.493 7.87961C114.564 7.65862 114.879 7.65862 114.949 7.87961H114.954Z" fill="#FBBE42"/>
    <path d="M123.205 7.87961L123.666 9.29485C123.699 9.39359 123.788 9.45941 123.892 9.45941H125.377C125.608 9.45941 125.706 9.75563 125.518 9.89198L124.315 10.7665C124.23 10.8276 124.197 10.9358 124.23 11.0345L124.691 12.4498C124.761 12.6707 124.512 12.8541 124.324 12.7178L123.12 11.8432C123.036 11.7821 122.923 11.7821 122.838 11.8432L121.635 12.7178C121.447 12.8541 121.193 12.6707 121.268 12.4498L121.729 11.0345C121.762 10.9358 121.729 10.8276 121.639 10.7665L120.436 9.89198C120.248 9.75563 120.346 9.45941 120.577 9.45941H122.063C122.166 9.45941 122.26 9.39359 122.288 9.29485L122.749 7.87961C122.82 7.65862 123.135 7.65862 123.205 7.87961Z" fill="#FBBE42"/>
    <path d="M131.453 7.87961L131.914 9.29485C131.947 9.39359 132.036 9.45941 132.139 9.45941H133.625C133.856 9.45941 133.954 9.75563 133.766 9.89198L132.563 10.7665C132.478 10.8276 132.445 10.9358 132.473 11.0345L132.934 12.4498C133.005 12.6707 132.755 12.8541 132.567 12.7178L131.364 11.8432C131.279 11.7821 131.166 11.7821 131.082 11.8432L129.878 12.7178C129.69 12.8541 129.436 12.6707 129.511 12.4498L129.972 11.0345C130.005 10.9358 129.972 10.8276 129.883 10.7665L128.679 9.89198C128.491 9.75563 128.59 9.45941 128.82 9.45941H130.306C130.409 9.45941 130.503 9.39359 130.531 9.29485L130.992 7.87961C131.063 7.65862 131.378 7.65862 131.448 7.87961H131.453Z" fill="#B1D7DD"/>
    <path d="M119.571 15.083H95.582V15.7507H119.571V15.083Z" fill="#B1D7DD"/>
    <path d="M119.571 4.11816H95.582V5.37355H119.571V4.11816Z" fill="#0892DC"/>
    <path d="M119.571 17.6221H95.582V18.2897H119.571V17.6221Z" fill="#B1D7DD"/>
    <path d="M106.547 19.9775H95.582V20.6452H106.547V19.9775Z" fill="#B1D7DD"/>
    <path d="M82.9527 21.4838C88.1031 20.2786 91.3013 15.1264 90.0962 9.97598C88.891 4.82557 83.7388 1.62731 78.5884 2.83249C73.4379 4.03766 70.2397 9.18989 71.4449 14.3403C72.65 19.4907 77.8023 22.689 82.9527 21.4838Z" fill="#7BC7FF"/>
    <mask id="mask0_274_225" style="mask-type:luminance" maskUnits="userSpaceOnUse" x="71" y="2" width="20" height="20">
        <path d="M82.9527 21.4838C88.1031 20.2786 91.3013 15.1264 90.0962 9.97598C88.891 4.82557 83.7388 1.62731 78.5884 2.83249C73.4379 4.03766 70.2397 9.18989 71.4449 14.3403C72.65 19.4907 77.8023 22.689 82.9527 21.4838Z" fill="white"/>
    </mask>
    <g mask="url(#mask0_274_225)">
        <path d="M85.5118 17.9657L84.6702 9.11688C84.6702 6.85061 83.7816 4.76772 81.3837 5.38365C80.2975 4.81473 78.9481 4.94639 78.0642 5.79271C77.1285 6.68605 76.5878 8.04487 76.5878 9.41309L75.6475 18.0174L85.5118 17.9657Z" fill="#0A4D7A"/>
        <path d="M82.1825 13.4189V15.3655C82.1825 15.3655 81.9098 16.8889 80.6262 17.1475C79.2909 16.7948 79.084 15.3655 79.084 15.3655V13.4189H82.1825Z" fill="#FFA683"/>
        <path d="M82.1826 13.1416V14.3829C81.7125 14.6368 81.1812 14.7731 80.6358 14.7731C80.0904 14.7731 79.5543 14.6368 79.0889 14.3829V13.1416H82.1874H82.1826Z" fill="#E57C5C"/>
        <path d="M83.7767 9.22066C82.3521 9.17834 81.4211 8.07812 81.4211 8.07812C80.5513 8.83511 77.5139 9.22066 77.5139 9.22066L77.4951 10.4196C77.4951 11.3224 77.876 12.4226 78.4872 13.2689C78.9856 13.9554 79.7896 14.355 80.6359 14.355C81.4822 14.355 82.2909 13.9554 82.7846 13.2689C83.3959 12.4226 83.7767 11.3224 83.7767 10.4196V9.22066Z" fill="#FFA683"/>
        <path d="M88.2949 18.6097C87.0819 16.5221 81.9428 15.3701 81.9428 15.3701L80.5934 15.8873L79.244 15.3701C79.244 15.3701 74.1049 16.5221 72.8918 18.6097L71.4014 29.8563L73.7617 29.8187L75.144 20.4245C75.144 20.4245 76.0185 23.4572 75.9668 25.2298C75.9198 27.0024 75.365 29.9316 75.365 29.9316H85.803C85.803 29.9316 85.2529 27.0024 85.2011 25.2298C85.1541 23.4572 86.0239 20.4245 86.0239 20.4245L87.4063 29.8187L89.7666 29.8563L88.2761 18.6097H88.2949Z" fill="#FFA683"/>
        <path d="M84.7546 16.2397C84.3456 17.4104 83.2877 19.2018 80.6077 19.3382C77.9229 19.1971 76.865 17.3963 76.456 16.2256C75.6708 16.5312 74.8527 16.9121 74.1709 17.3634L75.0924 20.4196C75.0924 20.4196 75.1207 20.4713 75.1348 20.4995L75.1489 20.4196C75.1489 20.4196 75.1865 20.5559 75.2476 20.7722C75.257 20.8051 75.2664 20.8428 75.2758 20.8804C75.5156 21.7972 76.014 23.8754 75.9764 25.2248C75.9294 26.9974 75.3746 29.9266 75.3746 29.9266H85.8125C85.8125 29.9266 85.2624 26.9974 85.2107 25.2248C85.1637 23.4522 86.0335 20.4196 86.0335 20.4196L86.0523 20.5512C86.0711 20.5042 86.0947 20.4572 86.1182 20.4196L87.035 17.3775C86.358 16.9215 85.5398 16.5359 84.7499 16.2303L84.7546 16.2397Z" fill="#0892DC"/>
    </g>
    <path d="M146.884 27.4261C146.541 27.4167 146.23 27.2286 146.071 26.923L141.162 17.1527C141.162 17.1527 140.574 14.8018 139.883 14.8018L139.812 17.9096L143.132 29.918C143.325 30.6703 143.715 31.3098 144.716 31.3333C146.757 31.3803 150.486 32.0338 152.916 32.6733C155.404 33.3268 157.496 32.6592 157.496 32.6592C157.651 27.1675 148.967 27.4637 146.879 27.4214L146.884 27.4261Z" fill="#FFA683"/>
    <path d="M154.228 26.1993V28.9781H150.011V27.4124C150.011 27.4124 147.237 26.7589 147.373 24.2528C147.509 21.7514 148.68 20.5384 149.32 20.3456C149.954 20.1528 153.015 21.3847 153.076 21.5399C153.133 21.695 153.462 24.3515 153.462 24.3515L154.233 26.1993H154.228Z" fill="#FFA683"/>
    <path d="M149.799 22.4049C149.799 22.4049 150.547 21.3517 151.242 21.8736C151.938 22.3955 151.59 23.4393 150.721 23.9612C150.721 23.9612 151.59 26.9186 153.33 26.7446C155.07 26.5707 157.308 24.7323 157.115 21.8642C156.922 18.9961 153.175 16.9743 151.125 17.3786C149.066 17.783 147.044 20.0728 149.794 22.4049H149.799Z" fill="#004CBA"/>
    <path d="M157.097 20.0587C157.097 20.0587 159.367 17.1718 161.638 19.6732C163.909 22.1745 165.334 24.9862 166.373 25.5269C167.412 26.0676 165.489 27.3747 162.983 26.566C160.482 25.7573 157.247 22.6776 157.092 20.0587H157.097Z" fill="#004CBA"/>
    <path d="M150.011 28.9781V27.4124C150.011 27.4124 151.736 27.4782 152.465 26.8105C152.465 26.8105 151.953 28.0048 150.824 28.0377V28.9781H150.011Z" fill="#ED7D5A"/>
    <path d="M148.158 51.1943C148.158 51.1943 149.151 66.7244 150.415 69.978C151.68 73.2269 159.678 88.0188 159.678 88.0188L163.82 87.1067L157.91 69.4373C157.863 70.5187 157.082 65.4267 158.54 60.2735C159.396 57.2502 159.067 53.9496 157.783 51.3119L147.43 51.199" fill="#006CBC"/>
    <path d="M157.708 50.5406C157.708 50.5406 157.322 54.8569 152.357 59.7514C147.345 64.6977 145.38 68.0125 145.38 68.0125L144.637 89.4151H140.504C140.504 89.4151 138.064 66.8605 138.134 66.0471C138.2 65.2337 145.041 50.5359 145.855 49.2523C146.668 47.964 157.708 50.5406 157.708 50.5406Z" fill="#0892DC"/>
    <path d="M154.661 28.752C154.661 28.752 159.09 29.0811 157.458 34.5775C155.676 40.5817 157.717 50.2063 158.126 51.1983L156.8 51.7296C152.818 53.2248 148.417 53.1308 144.505 51.4616C144.505 51.4616 148.027 43.6943 145.52 39.6319C143.908 37.0177 144.383 34.38 146.263 32.0479C147.481 30.5339 149.019 28.9588 149.625 28.9306L154.661 28.752Z" fill="#57BFFF"/>
    <path d="M140.509 89.415H141.383L139.616 66.2116C139.907 65.7273 140.918 63.8748 143.984 57.974C145.051 55.9194 145.798 53.9587 146.334 52.1156C145.78 51.9558 145.23 51.763 144.689 51.542C142.498 56.0416 138.191 65.4076 138.139 66.0517C138.069 66.8605 140.509 89.4197 140.509 89.4197V89.415Z" fill="#2481C6"/>
    <path d="M149.084 38.1742C147.015 38.9406 148.553 44.437 146.329 52.1151C145.713 51.9317 145.102 51.7201 144.5 51.4662C144.5 51.4662 148.022 43.6988 145.516 39.6365C144.721 38.3482 144.434 37.0552 144.575 35.7951L153.358 33.7969C153.358 33.7969 151.901 37.1304 149.084 38.1742Z" fill="#30AFEF"/>
    <path d="M130.155 24.4172C130.155 24.4172 138.195 37.7797 140.541 38.5367C141.585 38.8752 148.087 36.3363 150.829 35.8849C152.31 35.6404 153.353 34.2957 153.217 32.7958C153.062 31.0797 151.092 29.6221 149.409 29.9936L140.381 32.8052C140.381 32.8052 132.741 24.9015 131.034 23.096C131.034 23.096 130.329 20.8721 129.28 20.8721C128.345 20.8721 129.765 23.6508 130.15 24.4172H130.155Z" fill="#FFA683"/>
    <path d="M136.569 90.7834C137.706 90.412 139.841 89.9606 140.612 89.4199H144.623C144.585 90.2239 144.562 91.0044 144.552 91.5263C144.543 91.8743 144.261 92.1517 143.913 92.1517H135.924C135.403 92.1517 135.21 91.4699 135.656 91.1925C135.887 91.0515 136.188 90.9104 136.569 90.7834Z" fill="#004CBA"/>
    <path d="M156.132 90.2606C157.157 89.6399 159.132 88.7184 159.762 88.0178L163.669 87.1104C163.81 87.9003 163.97 88.6667 164.073 89.1792C164.144 89.5224 163.932 89.8562 163.589 89.9361L155.808 91.7416C155.3 91.8592 154.957 91.2385 155.328 90.8671C155.521 90.6743 155.78 90.4721 156.123 90.2653L156.132 90.2606Z" fill="#004CBA"/>
    <path opacity="0.58" d="M140.541 33.971C142.431 34.018 150.885 30.8443 153.133 32.3629C152.719 30.849 150.946 29.6547 149.409 29.9932L140.381 32.8049C140.381 32.8049 132.741 24.9012 131.034 23.0957C131.034 23.0957 138.482 33.9239 140.537 33.971H140.541Z" fill="#ED7D5A"/>
    <path d="M157.035 19.8848L156.447 19.9929C156.447 19.9929 157.209 21.2295 157.049 22.3908L157.811 22.2498C157.811 22.2498 157.731 20.1387 157.035 19.8895V19.8848Z" fill="white"/>
    <path d="M104.065 29.0938H36.326C34.433 29.0938 32.8984 30.6283 32.8984 32.5214V49.288C32.8984 51.181 34.433 52.7156 36.326 52.7156H104.065C105.958 52.7156 107.492 51.181 107.492 49.288V32.5214C107.492 30.6283 105.958 29.0938 104.065 29.0938Z" fill="white"/>
    <path d="M65.8497 36.9743L66.3104 38.3896C66.3433 38.4883 66.4327 38.5541 66.5361 38.5541H68.0219C68.2523 38.5541 68.351 38.8503 68.1629 38.9867L66.9593 39.8612C66.8747 39.9224 66.8417 40.0305 66.8746 40.1292L67.3354 41.5445C67.4059 41.7655 67.1568 41.9488 66.9687 41.8125L65.765 40.9379C65.6804 40.8768 65.5676 40.8768 65.4829 40.9379L64.2793 41.8125C64.0912 41.9488 63.8373 41.7655 63.9125 41.5445L64.3733 40.1292C64.4062 40.0305 64.3733 39.9224 64.284 39.8612L63.0803 38.9867C62.8922 38.8503 62.991 38.5541 63.2213 38.5541H64.7071C64.8106 38.5541 64.9046 38.4883 64.9328 38.3896L65.3936 36.9743C65.4641 36.7533 65.7791 36.7533 65.8497 36.9743Z" fill="#FBBE42"/>
    <path d="M74.1005 36.9743L74.5612 38.3896C74.5941 38.4883 74.6835 38.5541 74.7869 38.5541H76.2727C76.5031 38.5541 76.6018 38.8503 76.4137 38.9867L75.2101 39.8612C75.1254 39.9224 75.0925 40.0305 75.1207 40.1292L75.5815 41.5445C75.652 41.7655 75.4029 41.9488 75.2148 41.8125L74.0111 40.9379C73.9265 40.8768 73.8136 40.8768 73.729 40.9379L72.5254 41.8125C72.3373 41.9488 72.0834 41.7655 72.1586 41.5445L72.6194 40.1292C72.6523 40.0305 72.6194 39.9224 72.5301 39.8612L71.3264 38.9867C71.1383 38.8503 71.2371 38.5541 71.4674 38.5541H72.9532C73.0567 38.5541 73.1507 38.4883 73.1789 38.3896L73.6397 36.9743C73.7102 36.7533 74.0252 36.7533 74.0958 36.9743H74.1005Z" fill="#FBBE42"/>
    <path d="M82.3536 36.9743L82.8143 38.3896C82.8473 38.4883 82.9366 38.5541 83.04 38.5541H84.5258C84.7562 38.5541 84.8549 38.8503 84.6668 38.9867L83.4632 39.8612C83.3786 39.9224 83.3456 40.0305 83.3786 40.1292L83.8393 41.5445C83.9099 41.7655 83.6607 41.9488 83.4726 41.8125L82.2689 40.9379C82.1843 40.8768 82.0715 40.8768 81.9868 40.9379L80.7832 41.8125C80.5951 41.9488 80.3412 41.7655 80.4164 41.5445L80.8772 40.1292C80.9101 40.0305 80.8772 39.9224 80.7879 39.8612L79.5842 38.9867C79.3961 38.8503 79.4949 38.5541 79.7253 38.5541H81.211C81.3145 38.5541 81.4085 38.4883 81.4367 38.3896L81.8975 36.9743C81.968 36.7533 82.283 36.7533 82.3536 36.9743Z" fill="#FBBE42"/>
    <path d="M90.5997 36.9743L91.0604 38.3896C91.0933 38.4883 91.1827 38.5541 91.2861 38.5541H92.7719C93.0023 38.5541 93.101 38.8503 92.9129 38.9867L91.7093 39.8612C91.6246 39.9224 91.5917 40.0305 91.6246 40.1292L92.0854 41.5445C92.156 41.7655 91.9068 41.9488 91.7187 41.8125L90.515 40.9379C90.4304 40.8768 90.3175 40.8768 90.2329 40.9379L89.0293 41.8125C88.8412 41.9488 88.5873 41.7655 88.6625 41.5445L89.1233 40.1292C89.1562 40.0305 89.1233 39.9224 89.034 39.8612L87.8303 38.9867C87.6422 38.8503 87.741 38.5541 87.9714 38.5541H89.4571C89.5606 38.5541 89.6546 38.4883 89.6828 38.3896L90.1436 36.9743C90.2141 36.7533 90.5291 36.7533 90.5997 36.9743Z" fill="#FBBE42"/>
    <path d="M98.8514 36.9743L99.3122 38.3896C99.3451 38.4883 99.4345 38.5541 99.5379 38.5541H101.024C101.254 38.5541 101.353 38.8503 101.165 38.9867L99.9611 39.8612C99.8764 39.9224 99.8435 40.0305 99.8717 40.1292L100.332 41.5445C100.403 41.7655 100.154 41.9488 99.9657 41.8125L98.7621 40.9379C98.6775 40.8768 98.5646 40.8768 98.48 40.9379L97.2763 41.8125C97.0883 41.9488 96.8344 41.7655 96.9096 41.5445L97.3704 40.1292C97.4033 40.0305 97.3704 39.9224 97.281 39.8612L96.0774 38.9867C95.8893 38.8503 95.988 38.5541 96.2184 38.5541H97.7042C97.8076 38.5541 97.9017 38.4883 97.9299 38.3896L98.3907 36.9743C98.4612 36.7533 98.7762 36.7533 98.8467 36.9743H98.8514Z" fill="#FBBE42"/>
    <path d="M86.97 44.1826H62.9814V44.8503H86.97V44.1826Z" fill="#B1D7DD"/>
    <path d="M86.97 33.2129H62.9814V34.4683H86.97V33.2129Z" fill="#0A4D7A"/>
    <path d="M86.97 46.7158H62.9814V47.3835H86.97V46.7158Z" fill="#B1D7DD"/>
    <path d="M73.946 49.0723H62.9814V49.7399H73.946V49.0723Z" fill="#B1D7DD"/>
    <path d="M54.9284 48.0341C58.6687 44.2938 58.6687 38.2296 54.9284 34.4894C51.1881 30.7491 45.124 30.7491 41.3837 34.4894C37.6434 38.2296 37.6434 44.2938 41.3837 48.0341C45.124 51.7743 51.1881 51.7743 54.9284 48.0341Z" fill="#7BC7FF"/>
    <path d="M27.7031 77.8466C27.7031 77.8466 43.9478 64.2349 46.8018 69.0495C49.6605 73.8641 45.4477 89.4271 45.4477 89.4271L27.7031 77.8466Z" fill="#0A85E0"/>
    <path d="M36.2275 83.4084L45.4525 89.4267C45.4525 89.4267 49.3032 75.1896 47.1357 69.7402C48.1278 76.9058 40.525 81.443 36.2322 83.4084H36.2275Z" fill="#006CBC"/>
    <path d="M36.026 76.3943C36.026 76.3943 46.0831 84.4672 46.9059 87.3729C48.2366 92.0841 40.3563 91.5575 36.9569 91.5575C33.5576 91.5575 11.8682 90.9557 11.8682 90.9557L12.0656 87.6221L32.0671 86.6677C32.0671 86.6677 20.9897 85.0267 21.3987 78.6323C21.8078 72.2379 36.026 76.3943 36.026 76.3943Z" fill="#0892DC"/>
    <path d="M46.3605 90.0384C44.5268 91.8533 39.4959 91.557 36.9569 91.557C33.5528 91.557 11.8682 90.9599 11.8682 90.9599L12.0656 87.6216L32.0671 86.6719C32.0671 86.6719 40.0366 90.5085 46.2007 90.0572C46.2571 90.0572 46.3088 90.0478 46.3605 90.0384Z" fill="#0A85E0"/>
    <path d="M11.9664 90.9037C11.9664 90.9037 11.0824 92.8973 11.7595 94.2138C12.4366 95.5303 9.50264 94.5711 9.03246 91.9757C8.56229 89.3803 8.78797 86.2772 12.0604 87.6689L11.9664 90.9037Z" fill="#004CBA"/>
    <path d="M23.241 56.3929C23.241 56.3929 30.5429 35.2913 30.7592 35.39C31.6102 35.7661 33.1148 36.1188 33.1148 36.1188L30.1057 59.2798L23.2363 56.3976L23.241 56.3929Z" fill="#0A4D7A"/>
    <path d="M30.7868 53.9857C29.1271 53.2005 27.0536 52.2789 24.6227 52.4294C23.6213 55.3022 23.2451 56.3883 23.2451 56.3883L30.1144 59.2705L30.7915 53.981L30.7868 53.9857Z" fill="#083954"/>
    <path d="M32.3859 50.8115C31.8452 52.8051 29.7106 52.4336 29.7106 52.4336V54.3285H26.0244V51.766C26.0244 51.766 26.0385 51.766 26.0432 51.766C27.9616 52.208 30.0397 50.8162 29.1229 50.1298C28.2108 49.448 28.0086 48.3196 28.4882 47.7648C28.9677 47.2147 30.1244 47.6237 30.1244 47.6237C31.2293 47.5908 31.9863 47.4545 32.48 47.21C32.6681 48.3384 32.6822 49.7395 32.3953 50.8068L32.3859 50.8115Z" fill="#FFA683"/>
    <path d="M30.1103 47.6329C30.1103 47.6329 28.9583 47.2191 28.4787 47.7739C27.9991 48.3288 28.1966 49.4572 29.1135 50.1389C30.0303 50.8207 27.9474 52.2124 26.0338 51.7705C24.1155 51.3285 23.0482 47.3273 24.6938 44.7272C26.2031 42.3387 31.5067 41.2996 32.5787 43.8056C33.646 46.3117 33.7118 47.5388 30.115 47.6376L30.1103 47.6329Z" fill="#004CBA"/>
    <path d="M29.7058 54.3287V52.4339C29.7058 52.4339 28.4646 52.2693 27.9756 52.0107C27.9756 52.0107 28.6244 52.8007 29.057 52.9746V54.3287H29.7058Z" fill="#E57C5C"/>
    <path d="M30.6932 54.3656C30.6932 54.3656 24.5997 52.2545 22.8835 57.008C21.1674 61.7615 24.0825 73.1493 20.9746 77.0611C25.7798 79.3039 31.2903 79.5061 36.2507 77.616L36.9184 77.3621C36.9184 77.3621 34.7885 62.8335 34.685 63.3366C34.6004 63.7645 41.8788 66.0825 43.3317 65.2926C44.7845 64.5027 53.5722 54.5772 53.5722 54.5772L50.6147 54.1399L42.6922 59.3542C42.6922 59.3542 32.6962 54.4972 30.6932 54.3703V54.3656Z" fill="#0A4D7A"/>
    <path d="M53.5728 54.5726C53.5728 54.5726 56.6196 53.2561 56.8077 52.6543H52.4209C51.9648 52.6543 51.537 52.8706 51.269 53.242L50.6201 54.1354L53.5775 54.5726H53.5728Z" fill="#FFA683"/>
    <path d="M36.9146 77.3579C36.9146 77.3579 35.0433 64.5925 34.7236 63.4077C34.7612 63.4453 34.8223 63.4876 34.9022 63.5346C34.7612 63.4076 34.6813 63.3324 34.6813 63.3324C34.6813 63.3324 30.0312 62.204 28.3809 60.248C28.3809 60.248 29.9607 63.4829 31.9918 64.2352C33.8067 64.9075 33.1626 74.6873 34.5543 78.1666C35.1232 78.0067 35.6922 77.8234 36.247 77.6118L36.9146 77.3579Z" fill="#083954"/>
    <path d="M30.9854 35.4885C30.9854 35.4885 31.7611 32.7191 32.9131 32.5264V36.142L30.9854 35.4885Z" fill="#FFA683"/>
    <mask id="mask1_274_225" style="mask-type:luminance" maskUnits="userSpaceOnUse" x="38" y="31" width="20" height="20">
        <path d="M54.9274 48.0341C58.6677 44.2938 58.6677 38.2296 54.9274 34.4894C51.1871 30.7491 45.123 30.7491 41.3827 34.4894C37.6424 38.2296 37.6424 44.2938 41.3827 48.0341C45.123 51.7743 51.1871 51.7743 54.9274 48.0341Z" fill="white"/>
    </mask>
    <g mask="url(#mask1_274_225)">
        <path d="M58.6732 55.2927L58.0572 49.7633C57.9491 48.8747 57.446 48.0754 56.6843 47.577L54.766 46.3263L54.7566 46.3733V46.331L53.1768 45.7198L51.5688 45.0945L50.2382 44.5773L49.6551 44.3516L48.1882 45.0992L46.7212 44.3516L46.2087 44.549L44.9533 45.0333L43.2513 45.6916L41.6151 46.3263V46.3498L39.7437 47.5723C38.9821 48.0707 38.479 48.87 38.3708 49.7586L37.7549 55.2879H41.6386L41.648 59.8863H54.7331L54.7425 55.2879H58.6826L58.6732 55.2927Z" fill="#FBBE42"/>
        <path d="M48.2441 34.6377C46.086 34.6377 44.3369 36.3868 44.3369 38.5449V40.4068H52.1513V38.5449C52.1513 36.3868 50.4022 34.6377 48.2441 34.6377Z" fill="#0A4D7A"/>
        <path d="M49.7904 43.3211V44.6893C49.7904 44.6893 49.781 44.7316 49.7669 44.7975C49.5647 45.6015 48.8829 47.1625 48.2106 47.1484C47.5429 47.1343 46.8846 45.5404 46.7342 44.7222C46.7342 44.6987 46.7295 44.6846 46.7295 44.6846V43.3164H49.7904V43.3211Z" fill="#FFA683"/>
        <path d="M49.7912 43.0488V44.276C49.3257 44.5252 48.7991 44.6615 48.2584 44.6615C47.7177 44.6615 47.1911 44.5252 46.7256 44.276V43.0488H49.7865H49.7912Z" fill="#E57C5C"/>
        <path d="M46.1896 40.4254C46.1896 39.9035 45.7664 39.4756 45.2398 39.4756C44.7132 39.4756 44.29 39.8988 44.29 40.4254C44.29 40.952 44.7132 41.3751 45.2398 41.3751C45.7664 41.3751 46.1896 40.952 46.1896 40.4254Z" fill="#FFA683"/>
        <path d="M52.128 40.4254C52.128 39.9035 51.7049 39.4756 51.1783 39.4756C50.6517 39.4756 50.2285 39.8988 50.2285 40.4254C50.2285 40.952 50.6517 41.3751 51.1783 41.3751C51.7049 41.3751 52.128 40.952 52.128 40.4254Z" fill="#FFA683"/>
        <path d="M51.3662 38.8179C50.2471 38.1925 49.7911 37.6895 49.7911 37.6895H46.7161C46.4669 38.3853 45.1786 38.8179 45.1786 38.8179L45.1504 40.3554C45.1504 41.2487 45.5265 42.3348 46.1331 43.1717C46.3776 43.5103 46.702 43.7783 47.064 43.9616C47.4308 44.145 47.8398 44.2438 48.2583 44.2438C49.0999 44.2438 49.8945 43.8488 50.3835 43.1717C50.99 42.3348 51.3662 41.2487 51.3662 40.3554V38.8179Z" fill="#FFA683"/>
    </g>
    <path d="M136.666 58.0146H68.9276C67.0346 58.0146 65.5 59.5492 65.5 61.4422V78.2089C65.5 80.1019 67.0346 81.6365 68.9276 81.6365H136.666C138.559 81.6365 140.094 80.1019 140.094 78.2089V61.4422C140.094 59.5492 138.559 58.0146 136.666 58.0146Z" fill="white"/>
    <path d="M98.4553 65.8952L98.9161 67.3105C98.949 67.4092 99.0383 67.475 99.1418 67.475H100.628C100.858 67.475 100.957 67.7712 100.769 67.9076L99.5649 68.7821C99.4803 68.8433 99.4474 68.9514 99.4803 69.0501L99.9411 70.4654C100.012 70.6864 99.7624 70.8697 99.5743 70.7334L98.3707 69.8588C98.286 69.7977 98.1732 69.7977 98.0886 69.8588L96.8849 70.7334C96.6968 70.8697 96.4429 70.6864 96.5182 70.4654L96.9789 69.0501C97.0119 68.9514 96.9789 68.8433 96.8943 68.7821L95.6907 67.9076C95.5026 67.7712 95.6013 67.475 95.8317 67.475H97.3175C97.4209 67.475 97.5149 67.4092 97.5432 67.3105L98.0039 65.8952C98.0745 65.6742 98.3895 65.6742 98.46 65.8952H98.4553Z" fill="#FBBE42"/>
    <path d="M106.702 65.8952L107.163 67.3105C107.196 67.4092 107.285 67.475 107.388 67.475H108.874C109.105 67.475 109.203 67.7712 109.015 67.9076L107.812 68.7821C107.727 68.8433 107.694 68.9514 107.722 69.0501L108.183 70.4654C108.254 70.6864 108.004 70.8697 107.816 70.7334L106.613 69.8588C106.528 69.7977 106.415 69.7977 106.331 69.8588L105.127 70.7334C104.939 70.8697 104.685 70.6864 104.76 70.4654L105.221 69.0501C105.254 68.9514 105.221 68.8433 105.132 68.7821L103.928 67.9076C103.74 67.7712 103.839 67.475 104.069 67.475H105.555C105.658 67.475 105.752 67.4092 105.78 67.3105L106.241 65.8952C106.312 65.6742 106.627 65.6742 106.697 65.8952H106.702Z" fill="#FBBE42"/>
    <path d="M114.954 65.8952L115.415 67.3105C115.448 67.4092 115.537 67.475 115.64 67.475H117.126C117.357 67.475 117.455 67.7712 117.267 67.9076L116.064 68.7821C115.979 68.8433 115.946 68.9514 115.974 69.0501L116.435 70.4654C116.506 70.6864 116.256 70.8697 116.068 70.7334L114.865 69.8588C114.78 69.7977 114.667 69.7977 114.583 69.8588L113.379 70.7334C113.191 70.8697 112.937 70.6864 113.012 70.4654L113.473 69.0501C113.506 68.9514 113.473 68.8433 113.384 68.7821L112.18 67.9076C111.992 67.7712 112.091 67.475 112.321 67.475H113.807C113.91 67.475 114.004 67.4092 114.032 67.3105L114.493 65.8952C114.564 65.6742 114.879 65.6742 114.949 65.8952H114.954Z" fill="#B1D7DD"/>
    <path d="M114.686 65.7402C114.606 65.7543 114.526 65.8014 114.498 65.8954L114.037 67.3106C114.004 67.4094 113.915 67.4752 113.812 67.4752H112.326C112.095 67.4752 111.997 67.7714 112.185 67.9078L113.388 68.7823C113.473 68.8434 113.506 68.9516 113.478 69.0503L113.017 70.4655C112.946 70.6865 113.196 70.8699 113.384 70.7335L114.587 69.859C114.616 69.8355 114.653 69.8308 114.691 69.8261V65.7402H114.686Z" fill="#FBBE42"/>
    <path d="M123.205 65.8952L123.666 67.3105C123.699 67.4092 123.788 67.475 123.892 67.475H125.377C125.608 67.475 125.706 67.7712 125.518 67.9076L124.315 68.7821C124.23 68.8433 124.197 68.9514 124.23 69.0501L124.691 70.4654C124.761 70.6864 124.512 70.8697 124.324 70.7334L123.12 69.8588C123.036 69.7977 122.923 69.7977 122.838 69.8588L121.635 70.7334C121.447 70.8697 121.193 70.6864 121.268 70.4654L121.729 69.0501C121.762 68.9514 121.729 68.8433 121.639 68.7821L120.436 67.9076C120.248 67.7712 120.346 67.475 120.577 67.475H122.063C122.166 67.475 122.26 67.4092 122.288 67.3105L122.749 65.8952C122.82 65.6742 123.135 65.6742 123.205 65.8952Z" fill="#B1D7DD"/>
    <path d="M131.453 65.8952L131.914 67.3105C131.947 67.4092 132.036 67.475 132.139 67.475H133.625C133.856 67.475 133.954 67.7712 133.766 67.9076L132.563 68.7821C132.478 68.8433 132.445 68.9514 132.473 69.0501L132.934 70.4654C133.005 70.6864 132.755 70.8697 132.567 70.7334L131.364 69.8588C131.279 69.7977 131.166 69.7977 131.082 69.8588L129.878 70.7334C129.69 70.8697 129.436 70.6864 129.511 70.4654L129.972 69.0501C130.005 68.9514 129.972 68.8433 129.883 68.7821L128.679 67.9076C128.491 67.7712 128.59 67.475 128.82 67.475H130.306C130.409 67.475 130.503 67.4092 130.531 67.3105L130.992 65.8952C131.063 65.6742 131.378 65.6742 131.448 65.8952H131.453Z" fill="#B1D7DD"/>
    <path d="M119.571 73.1035H95.582V73.7712H119.571V73.1035Z" fill="#B1D7DD"/>
    <path d="M119.571 62.1338H95.582V63.3892H119.571V62.1338Z" fill="#FF5A5A"/>
    <path d="M119.571 75.6367H95.582V76.3044H119.571V75.6367Z" fill="#B1D7DD"/>
    <path d="M106.547 77.9932H95.582V78.6608H106.547V77.9932Z" fill="#B1D7DD"/>
    <path d="M88.9291 74.911C91.6913 70.4 90.2736 64.5039 85.7626 61.7417C81.2515 58.9795 75.3554 60.3972 72.5932 64.9082C69.831 69.4192 71.2487 75.3154 75.7598 78.0776C80.2708 80.8398 86.1669 79.4221 88.9291 74.911Z" fill="#7BC7FF"/>
    <mask id="mask2_274_225" style="mask-type:luminance" maskUnits="userSpaceOnUse" x="71" y="60" width="20" height="20">
        <path d="M88.9291 74.911C91.6913 70.4 90.2736 64.5039 85.7626 61.7417C81.2515 58.9795 75.3554 60.3972 72.5932 64.9082C69.831 69.4192 71.2487 75.3154 75.7598 78.0776C80.2708 80.8398 86.1669 79.4221 88.9291 74.911Z" fill="white"/>
    </mask>
    <g mask="url(#mask2_274_225)">
        <path d="M76.9024 67.8651C76.9024 67.8651 76.357 65.6928 77.2034 64.7384C78.0497 63.7839 79.7282 62.773 81.0964 63.2902C81.0964 63.2902 82.1731 62.6367 83.1605 63.1821C84.1432 63.7275 85.5631 64.2071 85.7136 63.5488C85.7136 63.5488 85.7935 66.0502 84.6745 66.4451L84.209 68.3729H77.0388L76.9024 67.8698V67.8651Z" fill="#0A4D7A"/>
        <path d="M88.2949 76.3616C87.0819 74.274 81.9428 73.1221 81.9428 73.1221L80.5934 73.6393L79.244 73.1221C79.244 73.1221 74.1049 74.274 72.8918 76.3616L71.4014 87.6083L73.7617 87.5707L75.144 78.1765C75.144 78.1765 76.0185 81.2092 75.9668 82.9817C75.9198 84.7543 75.365 87.6835 75.365 87.6835H85.803C85.803 87.6835 85.2529 84.7543 85.2011 82.9817C85.1541 81.2092 86.0239 78.1765 86.0239 78.1765L87.4063 87.5707L89.7666 87.6083L88.2761 76.3616H88.2949Z" fill="#0A4D7A"/>
        <path d="M82.1825 71.1699V73.1165C82.1825 73.1165 81.9098 74.6398 80.6262 74.8984C79.2909 74.5458 79.084 73.1165 79.084 73.1165V71.1699H82.1825Z" fill="#FFA683"/>
        <path d="M82.1826 70.8926V72.1339C81.7125 72.3878 81.1812 72.5241 80.6358 72.5241C80.0904 72.5241 79.5543 72.3878 79.0889 72.1339V70.8926H82.1874H82.1826Z" fill="#E57C5C"/>
        <path d="M83.7767 66.9716C82.3521 66.9293 81.4211 65.8291 81.4211 65.8291C80.5513 66.5861 77.5139 66.9716 77.5139 66.9716L77.4951 68.1706C77.4951 69.0733 77.876 70.1736 78.4872 71.0199C78.9856 71.7063 79.7896 72.106 80.6359 72.106C81.4822 72.106 82.2909 71.7063 82.7846 71.0199C83.3959 70.1736 83.7767 69.0733 83.7767 68.1706V66.9716Z" fill="#FFA683"/>
        <path d="M78.3087 68.3165C78.3087 68.7914 77.9232 69.1769 77.4483 69.1769C76.9734 69.1769 76.5879 68.7914 76.5879 68.3165C76.5879 67.8416 76.9734 67.4561 77.4483 67.4561C77.9232 67.4561 78.3087 67.8416 78.3087 68.3165Z" fill="#FFA683"/>
        <path d="M84.6505 68.3165C84.6505 68.7914 84.265 69.1769 83.7901 69.1769C83.3152 69.1769 82.9297 68.7914 82.9297 68.3165C82.9297 67.8416 83.3152 67.4561 83.7901 67.4561C84.265 67.4561 84.6505 67.8416 84.6505 68.3165Z" fill="#FFA683"/>
    </g>
    <path d="M174.418 81.6557L175.114 81.4253C175.213 80.2216 174.695 78.1951 171.968 75.0685C166.914 69.2805 162.583 61.0383 163.674 57.8223C163.674 57.8223 158.733 65.2652 162.066 70.1739C165.198 74.7816 173.515 75.7737 174.418 81.6557Z" fill="#0892DC"/>
    <path d="M174.706 81.5616L175.119 81.4253C175.218 80.2216 174.701 78.1951 171.974 75.0684C166.92 69.2805 162.589 61.0383 163.68 57.8223C163.68 57.8223 161.061 64.6587 164.456 69.2382C167.808 73.7566 173.784 74.697 174.706 81.5616Z" fill="#006CBC"/>
    <path d="M176.444 76.7091C176.176 77.9363 175.824 78.8908 175.504 79.5913L175.824 79.6478C177.305 77.6495 179.736 73.7 180.276 68.6832C181.061 61.3578 182.129 52.1846 182.129 52.1846C182.129 52.1846 174.672 58.3392 176.341 66.8918C177.173 71.1563 176.957 74.4053 176.449 76.7091H176.444Z" fill="#0892DC"/>
    <path d="M179.068 63.3985C178.659 69.5109 177.507 76.2391 176.012 78.9098C176.228 78.7405 176.463 78.5665 176.698 78.3879C178.118 76.1968 179.834 72.7974 180.272 68.6881C181.057 61.3627 182.124 52.1895 182.124 52.1895C182.124 52.1895 179.599 55.4384 179.068 63.3985Z" fill="#006CBC"/>
    <path d="M177.779 79.5544C177.144 80.2785 176.552 80.7909 176.077 81.1483L176.275 81.3034C178.01 80.5041 181.113 78.741 183.327 75.5625C186.567 70.9219 190.681 65.1387 190.681 65.1387C190.681 65.1387 183.379 66.5351 181.338 72.906C180.323 76.0844 178.973 78.1909 177.779 79.5544Z" fill="#0892DC"/>
    <path d="M184.475 71.5564C181.936 75.5248 178.673 79.6247 176.68 80.8707C176.887 80.8378 177.108 80.8049 177.333 80.772C179.101 79.8222 181.513 78.1625 183.333 75.5577C186.572 70.917 190.686 65.1338 190.686 65.1338C190.686 65.1338 187.781 66.3892 184.48 71.5517L184.475 71.5564Z" fill="#006CBC"/>
    <path d="M174.982 79.3284C175.438 80.6355 175.777 81.5288 175.974 82.1495L176.238 82.0884C175.81 79.7986 175.067 75.8397 174.366 73.2396C173.337 69.4123 174.141 67.5551 173.309 60.8974C172.481 54.2396 168.532 45.4473 168.532 45.4473C168.532 45.4473 165.983 54.7286 169.627 63.5774C173.271 72.4262 172.965 73.5781 174.982 79.3284Z" fill="#0892DC"/>
    <path d="M175.988 82.145L176.04 82.1356L176.068 81.1999C175.631 78.8678 174.982 75.5295 174.366 73.2445C173.336 69.4172 174.14 67.56 173.308 60.9022C172.481 54.2445 168.531 45.4521 168.531 45.4521C168.531 45.4521 169.773 58.6736 171.583 64.4568C173.257 69.8027 175.645 80.5699 175.993 82.1497L175.988 82.145Z" fill="#006CBC"/>
    <path d="M168.447 80.8091L170.045 90.2691C170.196 91.153 170.958 91.7972 171.851 91.7972H181.09C181.983 91.7972 182.75 91.153 182.895 90.2691L184.494 80.8091C184.64 79.9533 183.981 79.1729 183.112 79.1729H169.824C168.959 79.1729 168.296 79.9533 168.442 80.8091H168.447Z" fill="white"/>
    <path d="M184.484 80.3297C184.47 80.2403 184.447 80.1557 184.414 80.0711C184.414 80.0664 184.409 80.0617 184.404 80.0523C184.371 79.977 184.338 79.9018 184.291 79.8313C184.282 79.8172 184.273 79.8031 184.263 79.7937C184.221 79.7325 184.179 79.6761 184.127 79.6197C184.108 79.6009 184.085 79.5821 184.066 79.5633C184.019 79.521 183.976 79.4786 183.925 79.441C183.892 79.4175 183.854 79.3987 183.817 79.3752C183.774 79.347 183.732 79.3235 183.685 79.3C183.633 79.2765 183.577 79.2577 183.52 79.2436C183.483 79.2342 183.45 79.2154 183.412 79.2107C183.313 79.1871 183.215 79.1777 183.111 79.1777H169.824C169.025 79.1777 168.409 79.8407 168.432 80.6165H180.295C180.295 80.6823 180.295 80.7434 180.286 80.814L178.687 90.274C178.536 91.1579 177.775 91.8021 176.881 91.8021H181.09C181.983 91.8021 182.749 91.1579 182.895 90.274L184.494 80.814C184.522 80.6494 184.512 80.4895 184.484 80.3344V80.3297Z" fill="#CAEDFF"/>
    <path d="M122.556 49.5523C121.973 48.532 121.644 47.3424 121.663 46.0729C121.724 42.3444 124.846 39.3259 128.575 39.3917C132.416 39.4575 135.477 42.7065 135.242 46.6136C135.035 49.9848 132.312 52.7307 128.946 52.9658C127.926 53.0363 126.952 52.8811 126.064 52.5473C125.636 52.3828 125.166 52.3686 124.724 52.5003L122.081 53.2996L122.725 51.1603C122.885 50.6243 122.838 50.0412 122.561 49.557L122.556 49.5523Z" fill="#0A4D7A"/>
    <path d="M128.312 42.5141L127.611 44.6675C127.574 44.7898 127.461 44.8697 127.334 44.8697H125.072C124.785 44.8697 124.668 45.2317 124.898 45.401L126.732 46.7316C126.835 46.8068 126.878 46.9385 126.84 47.0607L126.14 49.2142C126.05 49.4869 126.361 49.7078 126.591 49.5433L128.425 48.2127C128.528 48.1374 128.669 48.1374 128.768 48.2127L130.602 49.5433C130.832 49.7125 131.142 49.4869 131.053 49.2142L130.352 47.0607C130.315 46.9385 130.352 46.8068 130.46 46.7316L132.294 45.401C132.525 45.2317 132.407 44.8697 132.12 44.8697H129.859C129.732 44.8697 129.619 44.7898 129.581 44.6675L128.881 42.5141C128.791 42.2414 128.411 42.2414 128.321 42.5141H128.312Z" fill="#FBBE42"/>
</svg>
