<svg width="24" height="24" viewBox="0 0 24 24" fill="none" xmlns="http://www.w3.org/2000/svg">
    <circle cx="12" cy="12" r="12" fill="#03045E"/>
    <path d="M18.695 18.1732C18.527 18.1732 18.3906 18.0369 18.3906 17.8689V15.7385H5.60867V17.8689C5.60867 18.0369 5.47232 18.1732 5.30433 18.1732C5.13634 18.1732 5 18.0369 5 17.8689V15.4342C5 15.2662 5.13634 15.1299 5.30433 15.1299H18.695C18.863 15.1299 18.9993 15.2662 18.9993 15.4342V17.8689C18.9993 18.0369 18.863 18.1732 18.695 18.1732Z" fill="#F5F5F5"/>
    <path d="M18.695 17.5647H5.30433C5.13634 17.5647 5 17.4284 5 17.2604C5 17.0924 5.13634 16.9561 5.30433 16.9561H18.695C18.863 16.9561 18.9993 17.0924 18.9993 17.2604C18.9993 17.4284 18.863 17.5647 18.695 17.5647Z" fill="#F5F5F5"/>
    <path d="M18.6962 15.7387C18.5781 15.7387 18.4679 15.6693 18.418 15.5579L15.9833 10.0799C15.9152 9.92653 15.984 9.74637 16.1379 9.6782C16.2919 9.60881 16.4709 9.67881 16.5397 9.8328L18.3918 14.0003V12.9997C18.3918 12.8317 18.5282 12.6954 18.6962 12.6954C18.8642 12.6954 19.0005 12.8317 19.0005 12.9997V15.4343C19.0005 15.578 18.9001 15.7022 18.7595 15.732C18.7382 15.7369 18.7169 15.7387 18.6962 15.7387Z" fill="#F5F5F5"/>
    <path d="M5.30433 15.739C5.28364 15.739 5.26233 15.7372 5.24103 15.7323C5.10043 15.7025 5 15.5783 5 15.4347V13C5 12.832 5.13634 12.6957 5.30433 12.6957C5.47232 12.6957 5.60867 12.832 5.60867 13V14.0006L7.46083 9.83312C7.51013 9.72295 7.61848 9.65234 7.73899 9.65234H8.65199C8.81998 9.65234 8.95632 9.78868 8.95632 9.95668C8.95632 10.1247 8.81998 10.261 8.65199 10.261H7.93681L5.58249 15.5582C5.53258 15.6696 5.42241 15.739 5.30433 15.739Z" fill="#F5F5F5"/>
    <path d="M16.2602 10.2607H15.3472C15.1792 10.2607 15.0429 10.1243 15.0429 9.95632C15.0429 9.78833 15.1792 9.65199 15.3472 9.65199H15.9559V7.52166C15.9559 7.0183 15.5463 6.60867 15.0429 6.60867H8.95623C8.45287 6.60867 8.04324 7.0183 8.04324 7.52166V9.95632C8.04324 10.1243 7.90689 10.2607 7.7389 10.2607C7.57091 10.2607 7.43457 10.1243 7.43457 9.95632V7.52166C7.43457 6.68292 8.11749 6 8.95623 6H15.0429C15.8816 6 16.5645 6.68292 16.5645 7.52166V9.95632C16.5645 10.1243 16.4282 10.2607 16.2602 10.2607Z" fill="#F5F5F5"/>
    <path d="M10.7823 11.4779H9.34159C9.07986 11.4779 8.83031 11.3653 8.65684 11.1693C8.48398 10.9727 8.40303 10.7116 8.4359 10.4517L8.58806 9.23436C8.64467 8.77847 9.03421 8.43457 9.49376 8.43457H10.7823C11.2857 8.43457 11.6953 8.8442 11.6953 9.34757V10.5649C11.6953 11.0683 11.2857 11.4779 10.7823 11.4779ZM9.49376 9.04324C9.34037 9.04324 9.21073 9.15766 9.19186 9.30983L9.03969 10.5272C9.02874 10.6154 9.05491 10.7 9.11334 10.7664C9.17177 10.8327 9.25273 10.8692 9.34159 10.8692H10.7823C10.9503 10.8692 11.0866 10.7329 11.0866 10.5649V9.34757C11.0866 9.17958 10.9503 9.04324 10.7823 9.04324H9.49376Z" fill="#F5F5F5"/>
    <path d="M14.6574 11.4779H13.2167C12.7133 11.4779 12.3037 11.0683 12.3037 10.5649V9.34757C12.3037 8.8442 12.7133 8.43457 13.2167 8.43457H14.5053C14.9648 8.43457 15.3543 8.77847 15.4109 9.23436L15.5631 10.4517C15.5954 10.7116 15.515 10.9727 15.3416 11.1693C15.1687 11.3653 14.9191 11.4779 14.6574 11.4779ZM13.2167 9.04324C13.0487 9.04324 12.9124 9.17958 12.9124 9.34757V10.5649C12.9124 10.7329 13.0487 10.8692 13.2167 10.8692H14.6574C14.7463 10.8692 14.8272 10.8327 14.8857 10.7664C14.9441 10.7 14.9703 10.6148 14.9593 10.5272L14.8072 9.30983C14.7883 9.15766 14.6586 9.04324 14.5053 9.04324H13.2167Z" fill="#F5F5F5"/>
    <path d="M12.6086 10.26H11.3912C11.2233 10.26 11.0869 10.1237 11.0869 9.9557C11.0869 9.78771 11.2233 9.65137 11.3912 9.65137H12.6086C12.7766 9.65137 12.9129 9.78771 12.9129 9.9557C12.9129 10.1237 12.7766 10.26 12.6086 10.26Z" fill="#F5F5F5"/>
</svg>
