<svg width="19" height="12" viewBox="0 0 19 12" fill="none" xmlns="http://www.w3.org/2000/svg">
    <path d="M3.56291 11.8753C2.4712 11.8753 1.58374 10.9871 1.58374 9.89616C1.58374 8.80524 2.4712 7.91699 3.56291 7.91699C4.65461 7.91699 5.54207 8.80524 5.54207 9.89616C5.54207 10.9871 4.65461 11.8753 3.56291 11.8753ZM3.56291 8.70866C2.9082 8.70866 2.37541 9.24145 2.37541 9.89616C2.37541 10.5509 2.9082 11.0837 3.56291 11.0837C4.21762 11.0837 4.75041 10.5509 4.75041 9.89616C4.75041 9.24145 4.21762 8.70866 3.56291 8.70866Z" fill="#444444"/>
    <path d="M15.4379 11.8753C14.3462 11.8753 13.4587 10.9871 13.4587 9.89616C13.4587 8.80524 14.3462 7.91699 15.4379 7.91699C16.5296 7.91699 17.4171 8.80524 17.4171 9.89616C17.4171 10.9871 16.5296 11.8753 15.4379 11.8753ZM15.4379 8.70866C14.7832 8.70866 14.2504 9.24145 14.2504 9.89616C14.2504 10.5509 14.7832 11.0837 15.4379 11.0837C16.0926 11.0837 16.6254 10.5509 16.6254 9.89616C16.6254 9.24145 16.0926 8.70866 15.4379 8.70866Z" fill="#444444"/>
    <path d="M12.2712 7.12467H11.4796C11.2611 7.12467 11.0837 6.94734 11.0837 6.72884C11.0837 6.51034 11.2611 6.33301 11.4796 6.33301H12.2712C12.4897 6.33301 12.6671 6.51034 12.6671 6.72884C12.6671 6.94734 12.4897 7.12467 12.2712 7.12467Z" fill="#444444"/>
    <path d="M17.0208 10.2917C16.8023 10.2917 16.625 10.1143 16.625 9.89583C16.625 9.67733 16.8023 9.5 17.0208 9.5C17.6755 9.5 18.2083 8.96721 18.2083 8.3125V6.15996C18.2083 5.97788 18.0848 5.82033 17.9083 5.776C17.195 5.59787 16.5427 5.22896 16.0241 4.70883L12.4545 1.14C12.2336 0.918333 11.9272 0.791667 11.6153 0.791667H1.97917C1.32446 0.791667 0.791667 1.32446 0.791667 1.97917V8.3125C0.791667 8.96721 1.32446 9.5 1.97917 9.5C2.19767 9.5 2.375 9.67733 2.375 9.89583C2.375 10.1143 2.19767 10.2917 1.97917 10.2917C0.887458 10.2917 0 9.40342 0 8.3125V1.97917C0 0.88825 0.887458 0 1.97917 0H11.6153C12.1442 0 12.6405 0.205833 13.015 0.5795L16.5846 4.14833C17.0018 4.56633 17.5259 4.86321 18.1007 5.00729C18.6295 5.14029 19 5.61371 19 6.15996V8.3125C19 9.40342 18.1125 10.2917 17.0208 10.2917Z" fill="#444444"/>
    <path d="M13.8542 10.2917H5.14583C4.92733 10.2917 4.75 10.1143 4.75 9.89583C4.75 9.67733 4.92733 9.5 5.14583 9.5H13.8542C14.0727 9.5 14.25 9.67733 14.25 9.89583C14.25 10.1143 14.0727 10.2917 13.8542 10.2917Z" fill="#444444"/>
    <path d="M14.6458 5.54134H9.89583C9.67733 5.54134 9.5 5.36401 9.5 5.14551V1.97884C9.5 1.76034 9.67733 1.58301 9.89583 1.58301C10.1143 1.58301 10.2917 1.76034 10.2917 1.97884V4.74967H14.6458C14.8643 4.74967 15.0417 4.92701 15.0417 5.14551C15.0417 5.36401 14.8643 5.54134 14.6458 5.54134Z" fill="#444444"/>
    <path d="M8.31209 5.54134H5.93709C5.71859 5.54134 5.54126 5.36401 5.54126 5.14551V1.97884C5.54126 1.76034 5.71859 1.58301 5.93709 1.58301C6.15559 1.58301 6.33293 1.76034 6.33293 1.97884V4.74967H8.31209C8.53059 4.74967 8.70793 4.92701 8.70793 5.14551C8.70793 5.36401 8.53059 5.54134 8.31209 5.54134Z" fill="#444444"/>
    <path d="M4.35457 5.54134H1.97957C1.76107 5.54134 1.58374 5.36401 1.58374 5.14551V1.97884C1.58374 1.76034 1.76107 1.58301 1.97957 1.58301C2.19807 1.58301 2.37541 1.76034 2.37541 1.97884V4.74967H4.35457C4.57307 4.74967 4.75041 4.92701 4.75041 5.14551C4.75041 5.36401 4.57307 5.54134 4.35457 5.54134Z" fill="#444444"/>
</svg>
