<svg width="20" height="20" viewBox="0 0 20 20" fill="none" xmlns="http://www.w3.org/2000/svg">
    <path d="M9.58366 20C9.35366 20 9.16699 19.8133 9.16699 19.5833V0.416667C9.16699 0.186667 9.35366 0 9.58366 0C9.81366 0 10.0003 0.186667 10.0003 0.416667V19.5833C10.0003 19.8133 9.81366 20 9.58366 20Z" fill="#444444"/>
    <path d="M14.583 13.1665C14.5147 13.1665 14.4463 13.1498 14.3822 13.1148L1.04884 5.78146C0.847169 5.67063 0.773836 5.4173 0.884669 5.21563C0.997169 5.01313 1.24967 4.94146 1.45134 5.05146L14.7847 12.3848C14.9863 12.4956 15.0597 12.749 14.9488 12.9506C14.8722 13.0881 14.7297 13.1665 14.583 13.1665Z" fill="#444444"/>
    <path d="M1.24967 14.9997C1.103 14.9997 0.960503 14.9213 0.884669 14.7838C0.773836 14.5822 0.847169 14.3288 1.04884 14.218L14.3822 6.88467C14.5847 6.77384 14.8363 6.84717 14.9488 7.04884C15.0597 7.2505 14.9863 7.50384 14.7847 7.61467L1.45134 14.948C1.38634 14.983 1.318 14.9997 1.24967 14.9997Z" fill="#444444"/>
    <path d="M9.58419 5.00003C9.47753 5.00003 9.37086 4.95919 9.28919 4.87836L5.95586 1.54503C5.79336 1.38253 5.79336 1.11836 5.95586 0.955859C6.11836 0.793359 6.38253 0.793359 6.54503 0.955859L9.58419 3.99419L12.6225 0.955859C12.785 0.793359 13.0492 0.793359 13.2117 0.955859C13.3742 1.11836 13.3742 1.38253 13.2117 1.54503L9.87836 4.87836C9.79753 4.95919 9.69086 5.00003 9.58419 5.00003Z" fill="#444444"/>
    <path d="M12.9167 19.1669C12.81 19.1669 12.7034 19.126 12.6217 19.0452L9.58336 16.006L6.54503 19.0444C6.38253 19.2069 6.11836 19.2069 5.95586 19.0444C5.79336 18.8819 5.79336 18.6177 5.95586 18.4552L9.28919 15.1219C9.45169 14.9594 9.71586 14.9594 9.87836 15.1219L13.2117 18.4552C13.3742 18.6177 13.3742 18.8819 13.2117 19.0444C13.13 19.126 13.0234 19.1669 12.9167 19.1669Z" fill="#444444"/>
    <path d="M3.53552 17.565C3.49718 17.565 3.45885 17.56 3.41968 17.5483C3.19802 17.4841 3.07135 17.2533 3.13468 17.0325L4.32802 12.8958L0.293849 11.6483C0.0738491 11.58 -0.0494843 11.3475 0.0188491 11.1275C0.086349 10.9075 0.318849 10.7825 0.539682 10.8525L4.96468 12.2208C5.18218 12.2883 5.30468 12.5158 5.24218 12.7341L3.93635 17.2641C3.88302 17.4458 3.71718 17.565 3.53552 17.565Z" fill="#444444"/>
    <path d="M0.417182 9.16708C0.238849 9.16708 0.0746824 9.05208 0.0188491 8.87375C-0.0494843 8.65375 0.0738491 8.42042 0.293849 8.35292L4.32802 7.10542L3.13552 2.96792C3.07218 2.74625 3.19885 2.51625 3.42052 2.45208C3.64552 2.38792 3.87218 2.51625 3.93635 2.73708L5.24218 7.26625C5.30468 7.48458 5.18218 7.71292 4.96468 7.77958L0.539682 9.14792C0.499682 9.16125 0.458016 9.16708 0.417182 9.16708Z" fill="#444444"/>
    <path d="M17.0778 19.9988C16.8994 19.9988 16.7186 19.983 16.5394 19.9497C15.3786 19.7388 14.4478 18.8188 14.2236 17.6613C13.9803 16.408 14.5344 15.1905 15.6369 14.5605C15.7578 14.4922 15.8336 14.358 15.8336 14.213V4.58301C15.8336 3.89384 16.3944 3.33301 17.0836 3.33301C17.7728 3.33301 18.3336 3.89384 18.3336 4.58301V14.2122C18.3336 14.3563 18.4144 14.493 18.5453 14.5697C19.4428 15.0897 20.0003 16.053 20.0003 17.083C20.0003 17.9505 19.6178 18.7672 18.9511 19.323C18.4228 19.7638 17.7611 19.9988 17.0778 19.9988ZM17.0836 4.16634C16.8544 4.16634 16.6669 4.35301 16.6669 4.58301V14.213C16.6669 14.6563 16.4311 15.0672 16.0503 15.2855C15.2628 15.7355 14.8669 16.6063 15.0419 17.5038C15.1986 18.3147 15.8761 18.983 16.6894 19.1313C17.3244 19.2463 17.9344 19.0872 18.4178 18.6847C18.8936 18.2863 19.1669 17.703 19.1669 17.083C19.1669 16.338 18.7778 15.668 18.1269 15.2905C17.7403 15.0663 17.5003 14.653 17.5003 14.2122V4.58301C17.5003 4.35301 17.3128 4.16634 17.0836 4.16634Z" fill="#444444"/>
    <path d="M19.584 13.3333H16.2507C16.0207 13.3333 15.834 13.1467 15.834 12.9167C15.834 12.6867 16.0207 12.5 16.2507 12.5H19.584C19.814 12.5 20.0007 12.6867 20.0007 12.9167C20.0007 13.1467 19.814 13.3333 19.584 13.3333Z" fill="#444444"/>
    <path d="M19.5843 9.99935H17.9176C17.6876 9.99935 17.501 9.81268 17.501 9.58268C17.501 9.35268 17.6876 9.16602 17.9176 9.16602H19.5843C19.8143 9.16602 20.001 9.35268 20.001 9.58268C20.001 9.81268 19.8143 9.99935 19.5843 9.99935Z" fill="#444444"/>
    <path d="M19.5843 6.66634H17.9176C17.6876 6.66634 17.501 6.47967 17.501 6.24967C17.501 6.01967 17.6876 5.83301 17.9176 5.83301H19.5843C19.8143 5.83301 20.001 6.01967 20.001 6.24967C20.001 6.47967 19.8143 6.66634 19.5843 6.66634Z" fill="#444444"/>
</svg>
