<svg width="20" height="32" viewBox="0 0 20 32" fill="none" xmlns="http://www.w3.org/2000/svg">
    <path d="M16.25 20.8H11.05C10.6912 20.8 10.4 21.0912 10.4 21.45V24.05C10.4 24.4088 10.6912 24.7 11.05 24.7H16.25C16.6088 24.7 16.9 24.4088 16.9 24.05V21.45C16.9 21.0912 16.6088 20.8 16.25 20.8ZM15.6 23.4H11.7V22.1H15.6V23.4ZM16.25 6.5H13V1.3H14.95C15.3088 1.3 15.6 1.0088 15.6 0.65C15.6 0.2912 15.3088 0 14.95 0H4.55C4.1912 0 3.9 0.2912 3.9 0.65C3.9 1.0088 4.1912 1.3 4.55 1.3H6.5V6.5H3.25C1.4586 6.5 0 7.9586 0 9.75V26.65C0 28.4414 1.4586 29.9 3.25 29.9H3.9C3.9 30.6176 4.4824 31.2 5.2 31.2C5.9176 31.2 6.5 30.6176 6.5 29.9H13C13 30.6176 13.5824 31.2 14.3 31.2C15.0176 31.2 15.6 30.6176 15.6 29.9H16.25C18.0414 29.9 19.5 28.4414 19.5 26.65V9.75C19.5 7.9586 18.0414 6.5 16.25 6.5ZM7.8 1.3H11.7V6.5H7.8V1.3ZM18.2 26.65C18.2 27.7251 17.3251 28.6 16.25 28.6H3.25C2.1749 28.6 1.3 27.7251 1.3 26.65V9.75C1.3 8.6749 2.1749 7.8 3.25 7.8H16.25C17.3251 7.8 18.2 8.6749 18.2 9.75V26.65Z" fill="#444444"/>
</svg>
