<svg width="167" height="56" viewBox="0 0 167 56" fill="none" xmlns="http://www.w3.org/2000/svg">
    <path fill-rule="evenodd" clip-rule="evenodd" d="M150.655 4.65478C149.751 5.82992 149.254 7.27624 149.254 8.76775V21.6942C149.209 22.6886 148.802 23.5925 148.214 24.3609C147.898 24.6772 145.909 26.4851 145.729 26.6659L146.858 26.7111C147.22 26.3948 151.062 22.9598 151.423 22.5078C152.553 21.2874 153.186 19.7055 153.186 18.0332V5.60393C153.141 4.3384 153.638 3.11807 154.497 2.21412C154.949 1.71695 156.44 0.451423 156.711 0.13504L155.536 0.0898438C155.265 0.451423 151.062 4.24801 150.655 4.65478Z" fill="#D71A21"/>
    <path fill-rule="evenodd" clip-rule="evenodd" d="M141.209 51.6603L145.91 55.7281H149.028C152.011 55.7281 154.949 54.5529 157.073 52.4286C159.017 50.4851 159.695 47.9089 159.695 45.4682V38.7338C159.65 37.1971 159.017 35.7508 157.887 34.7564C157.706 34.5756 156.305 33.2197 156.305 33.2197V38.3722C156.305 38.3722 157.842 39.9089 158.113 40.2253C159.514 41.7168 159.514 44.4287 155.085 48.6772C154.316 49.4004 152.102 51.5247 149.073 51.5247L141.209 51.6603Z" fill="#D71A21"/>
    <path fill-rule="evenodd" clip-rule="evenodd" d="M154.225 24.0898C153.728 24.6322 153.231 25.9881 153.231 27.2084V29.7395H155.807C156.801 29.7395 158.112 28.8355 158.383 28.3384V25.8073C158.745 26.3497 159.242 26.8469 159.784 27.2536C160.056 26.9373 162.406 24.0898 164.349 24.0446C167.604 23.9994 166.88 28.1576 165.57 29.4683C165.118 29.9203 163.219 31.683 162.587 32.2254C161.05 33.7169 158.383 32.9937 158.383 29.1971C158.383 29.1971 155.536 31.909 155.129 32.2705C154.677 32.6321 153.231 34.214 153.231 34.214V40.9485C153.231 44.1575 152.191 45.2422 151.287 46.1914C150.971 46.5529 147.355 49.8524 146.813 50.2591L145.638 50.3043C145.638 50.3043 147.762 48.3608 148.169 47.9541C148.621 47.4569 149.208 46.4173 149.208 44.745C149.208 44.2931 149.163 34.214 149.163 34.214H132.711C126.971 34.214 125.751 27.8864 125.751 26.1689V19.7509C125.751 18.7113 125.073 16.9486 124.033 16.4062H125.66C125.841 16.4514 126.881 16.8582 126.881 20.7904C126.881 20.7904 126.835 25.3101 126.835 25.5813C126.835 27.57 128.417 29.8299 130.677 29.8299L149.299 29.7847C149.299 29.2875 149.796 27.3892 150.7 26.3949C151.197 25.8073 155.219 22.1915 155.671 21.8299H156.847C156.666 22.0107 154.722 23.7282 154.315 24.1802L154.225 24.0898ZM160.327 27.9316C160.779 28.5644 161.321 29.1971 161.909 29.7847C163.943 31.4118 164.892 29.6491 163.536 27.8412C162.993 27.0728 160.96 27.2536 160.327 27.9316Z" fill="#D71A21"/>
    <path fill-rule="evenodd" clip-rule="evenodd" d="M140.395 39.9094C140.395 40.8134 137.547 43.2089 137.366 43.3444C137.186 42.3501 136.417 41.3106 134.293 39.1411L137.412 36.0225C139.536 38.1467 140.395 38.6439 140.395 39.9094Z" fill="#D71A21"/>
    <path fill-rule="evenodd" clip-rule="evenodd" d="M145.817 3.84178C146.45 4.47455 147.806 6.14685 146.992 7.0056C146.269 7.72876 145.185 8.8587 145.185 8.8587C145.139 8.45192 144.055 7.45758 144.055 7.45758V10.8474C144.009 12.2485 143.512 12.6101 143.512 12.6101C143.512 12.6101 146.043 15.0959 146.043 18.3502V21.6496C146.089 22.2371 145.863 22.9151 145.411 23.3219C145.185 23.5931 142.834 25.9433 142.473 26.2597C141.93 26.7117 141.252 26.9829 140.529 26.9829H131.806C130.405 26.9829 129.004 25.8981 129.004 24.8134C129.004 24.5422 129.049 21.5592 129.049 21.5592C129.501 22.0563 129.953 22.6891 131.038 22.6891C131.897 22.6891 132.8 22.0111 133.026 21.74C133.252 21.4688 139.625 14.87 139.625 14.87C139.625 14.87 136.642 12.1129 134.699 10.8022C133.75 10.1694 132.484 10.983 132.258 11.7965C131.671 14.418 132.258 18.3954 132.258 18.3954L129.863 15.9999C128.868 15.0055 128.914 12.8361 130.089 11.6609C130.269 11.4802 132.032 9.49146 134.292 9.49146H137.772C140.077 9.49146 142.654 11.7965 142.654 11.7965C142.834 11.5705 142.97 11.2994 143.015 10.983C143.015 9.76265 142.97 6.55363 142.97 6.55363C141.207 4.79093 140.981 2.98303 141.84 2.12428C143.422 0.542368 144.009 0 144.009 0C144.009 0 143.964 2.03388 145.817 3.84178ZM134.88 21.4236C134.021 22.3275 133.885 22.5535 133.072 23.0507H142.925C145.591 23.0507 145.049 21.3784 144.597 20.5648C143.603 18.8473 140.529 15.6835 140.529 15.6835C140.529 15.6835 135.06 21.2428 134.88 21.4236Z" fill="#D71A21"/>
    <path fill-rule="evenodd" clip-rule="evenodd" d="M123.627 30.373H122C122 30.373 123.718 31.3222 123.718 33.7629V41.6272C123.718 46.7345 127.921 51.4351 133.073 51.4351H137.367C139.943 51.4351 140.847 50.8475 142.384 49.4464C142.972 48.9492 143.695 48.0904 143.966 47.7741C144.825 46.7797 145.819 45.9662 145.819 43.2995V40.7233C145.819 38.5086 144.554 37.6046 143.876 36.9267C143.469 36.5199 142.384 35.4804 142.384 35.4804V40.7233C142.384 40.7233 143.469 41.8532 143.921 42.26C146.135 44.0227 144.373 47.0509 142.294 47.0509H132.893C129.458 47.0961 124.757 44.0679 124.757 38.8702V34.6216C124.847 30.373 123.627 30.373 123.627 30.373Z" fill="#D71A21"/>
    <path fill-rule="evenodd" clip-rule="evenodd" d="M133.977 39.9544C133.977 40.8583 131.129 43.2538 130.948 43.3894C130.768 42.395 129.999 41.3555 127.875 39.186L130.994 36.0674C133.073 38.1465 133.977 38.6436 133.977 39.9544Z" fill="#D71A21"/>
    <path fill-rule="evenodd" clip-rule="evenodd" d="M13.2428 36.847H8.18073C6.59882 36.847 6.73442 35.5363 6.55363 34.4064V27.1748C6.55363 27.1748 7.68356 27.1296 8.90389 27.1296C10.305 27.1296 12.0225 26.9488 13.74 27.8527C12.8813 25.9996 10.983 24.8697 8.90389 24.9149H6.59882V22.6098C6.59882 22.6098 6.59883 20.5759 6.10165 20.0336H9.44626C12.2937 20.0336 14.5536 19.9884 16.8586 21.5251C16.8586 21.5251 16.4067 17.7285 10.8474 17.7285H0C0 17.7285 1.89829 19.3556 1.8079 22.6098L1.85309 35.7623C1.85309 39.0617 3.16382 39.1521 3.16382 39.1521H13.8756C16.3163 39.1521 17.1298 37.4346 17.1298 36.4855L17.175 35.2199C17.175 35.2651 16.4067 36.847 13.2428 36.847Z" fill="#D71A21"/>
    <path fill-rule="evenodd" clip-rule="evenodd" d="M41.717 35.7625V26.5422C41.717 22.9716 38.8244 22.0225 36.6097 22.0225C33.7623 22.0225 32.8583 24.4179 32.4967 25.2767C31.864 23.062 29.6041 22.0225 27.7962 22.0225C24.316 22.0225 23.4572 25.3219 23.4572 25.3219C23.4572 25.3219 23.412 22.1129 20.6098 22.1129H17.8979C17.8979 22.1129 19.4799 22.7456 19.4799 25.5027V35.7173C19.4799 39.1071 20.8358 39.1523 20.8358 39.1523H25.3555C24.2708 38.3387 23.638 37.0732 23.638 35.6721V26.5874C23.6832 26.1806 24.3612 24.8247 26.3047 24.8247C27.4346 24.8247 28.6097 25.9546 28.6097 27.2654V35.7173C28.6097 39.1071 29.9657 39.1523 29.9657 39.1523H34.4854C33.4007 38.2935 32.7679 37.0732 32.7679 35.6721V26.5874C33.2199 25.2767 34.621 24.5083 35.9769 24.9603C36.9713 25.2767 37.6944 26.2258 37.7396 27.2654V35.6721C37.7848 39.1071 39.0956 39.0619 39.0956 39.0619H43.6153C42.395 38.3387 41.7622 37.1184 41.717 35.7625Z" fill="#D71A21"/>
    <path fill-rule="evenodd" clip-rule="evenodd" d="M49.6265 35.7619C49.6265 37.1179 50.2593 38.3834 51.3441 39.1969H46.8243C46.8243 39.1969 45.4232 39.2421 45.4232 35.8071V25.5021C45.4232 22.7903 43.8865 22.1123 43.8865 22.1123H46.5983C47.5927 22.1123 49.5813 22.1123 49.5813 25.9089V35.6715L49.6265 35.7619Z" fill="#D71A21"/>
    <path fill-rule="evenodd" clip-rule="evenodd" d="M63.5021 23.4237C63.5021 23.4237 63.0501 22.2034 61.197 22.2034C58.3496 22.2034 57.6717 25.5932 57.6717 25.5932C57.4457 22.9266 56.7225 22.1582 54.7338 22.1582H52.022C52.022 22.1582 53.6039 22.791 53.6039 25.548V35.7626C53.6039 39.1524 54.9598 39.1976 54.9598 39.1976H59.4795C58.3948 38.3841 57.762 37.1186 57.762 35.7626V27.3559C57.8524 26.6327 58.2592 26 58.892 25.6384C60.4287 24.6441 62.4174 24.9153 63.5925 26.3164L63.5021 23.4237Z" fill="#D71A21"/>
    <path fill-rule="evenodd" clip-rule="evenodd" d="M84.5193 24.0111C85.4685 24.0111 86.3724 24.2371 87.186 24.6891V22.1128H83.3894V18.1807C82.5758 19.4462 81.5363 20.6213 80.3612 21.5705C79.0956 22.61 76.3838 23.9207 76.3838 23.9207L79.2312 23.9659V35.8529C79.2312 39.1523 80.6323 39.1523 80.6323 39.1523H85.1069C84.0222 38.3839 83.3894 37.1184 83.3442 35.8077V23.9659H84.5193V24.0111Z" fill="#D71A21"/>
    <path fill-rule="evenodd" clip-rule="evenodd" d="M98.2136 29.1631C95.6826 31.7845 93.6939 31.3778 92.112 33.3665C92.112 33.3665 92.3832 35.9879 94.3718 36.8918C95.0498 37.2082 97.8521 38.2026 99.6148 35.084V37.841C99.6148 37.841 98.4848 39.1969 94.7786 39.1969C90.3493 39.1969 87.321 35.7167 87.321 31.0162C87.321 26.3608 89.7617 22.0671 94.4622 22.0219C99.0724 21.9767 101.558 25.6829 98.2136 29.1631ZM95.4566 28.0783C96.1797 26.6772 96.8125 23.197 94.2363 23.3778C91.2532 23.6038 91.8408 31.4682 91.8408 31.4682C92.8351 30.4286 94.2815 30.2026 95.4566 28.0783Z" fill="#D71A21"/>
    <path fill-rule="evenodd" clip-rule="evenodd" d="M47.5024 20.7565C48.6324 20.7113 49.5363 19.7622 49.5363 18.6774C49.4911 17.5475 48.542 16.6436 47.4572 16.6436C46.3273 16.6888 45.4233 17.5927 45.4233 18.7226C45.4233 19.8526 46.3725 20.7565 47.5024 20.7565Z" fill="#D71A21"/>
    <path fill-rule="evenodd" clip-rule="evenodd" d="M68.2027 37.2536C67.2084 37.2536 66.44 36.1689 66.44 35.0841C66.44 30.8356 69.9202 30.248 70.8694 29.1181V36.3045C70.4174 36.6208 70.0106 37.2536 68.2027 37.2536ZM70.8694 27.4458C69.8298 29.2537 61.6491 29.6604 62.9146 35.9881C63.4118 38.4739 65.0841 39.2423 67.1632 39.2423C69.1971 39.2423 70.4174 38.2028 70.9598 37.1632C71.2762 39.0615 72.2253 39.1971 72.2253 39.1971H76.745C75.6603 38.3835 74.9823 37.118 74.9823 35.8073V26.1802C74.9823 23.8752 72.4513 22.1125 69.7394 22.1125C68.2027 22.0673 66.7564 22.5192 65.5361 23.378V26.361C65.5361 26.361 66.4852 24.0108 68.7903 24.0108C71.0954 24.0108 71.231 25.1407 71.231 25.7283C71.3214 26.2706 71.1858 26.9034 70.8694 27.4458Z" fill="#D71A21"/>
    <path fill-rule="evenodd" clip-rule="evenodd" d="M108.203 34.5421C108.248 35.7625 107.163 37.3444 104.858 37.3444C102.508 37.3444 101.559 34.9489 101.559 34.9489V37.9771C102.824 38.7907 104.316 39.1975 105.853 39.1975C108.926 39.1975 112.045 36.8924 112 33.593C111.954 32.5083 111.593 31.4687 110.96 30.61C109.921 29.2089 108.022 28.2597 106.531 27.3558C105.672 26.8586 105.265 25.9094 105.265 25.5931C105.22 25.0055 105.536 23.8756 107.796 23.8756C110.011 23.8756 111.005 26.2258 111.005 26.2258V23.3784C109.74 22.5196 108.248 22.0225 106.666 22.0225C103.954 22.0225 101.514 23.8304 101.559 26.0902C101.604 28.1241 102.418 29.3896 104.09 30.6552C104.813 31.1975 105.627 31.6495 106.395 32.1015C107.706 32.8246 108.158 33.6834 108.203 34.5421Z" fill="#D71A21"/>
</svg>
